<svg width="420" height="409" viewBox="0 0 420 409" fill="none" xmlns="http://www.w3.org/2000/svg">
<g filter="url(#filter0_d_2_773)">
<rect x="193.85" y="116.965" width="7.45577" height="7.45577" rx="3.72788" fill="url(#paint0_linear_2_773)"/>
</g>
<g filter="url(#filter1_d_2_773)">
<rect x="395.653" y="212.896" width="7.45577" height="7.45577" rx="3.72788" fill="url(#paint1_linear_2_773)"/>
</g>
<g filter="url(#filter2_d_2_773)">
<rect x="316.125" y="288.448" width="7.45577" height="7.45577" rx="3.72788" fill="url(#paint2_linear_2_773)"/>
</g>
<g filter="url(#filter3_d_2_773)">
<rect x="174.465" y="282.482" width="15.4086" height="15.4086" rx="7.70429" fill="url(#paint3_linear_2_773)"/>
</g>
<g filter="url(#filter4_d_2_773)">
<rect x="311.651" y="259.619" width="8.94692" height="8.94692" rx="4.47346" fill="url(#paint4_linear_2_773)"/>
</g>
<g filter="url(#filter5_d_2_773)">
<rect x="72.0726" y="259.121" width="8.94692" height="8.94692" rx="4.47346" fill="url(#paint5_linear_2_773)"/>
</g>
<g filter="url(#filter6_d_2_773)">
<rect x="264.431" y="299.88" width="4.47346" height="4.47346" rx="2.23673" fill="url(#paint6_linear_2_773)"/>
</g>
<path d="M223.904 45.3401C223.904 45.3401 180.04 46.7593 168.938 66.9819C158.125 86.6765 178.673 123.684 178.673 123.684C178.673 123.684 208.688 173.079 200.414 204.822C186.288 259.015 96.1292 203.026 63.9355 248.851C28.0828 299.884 83.4825 407.353 83.4825 407.353" stroke="#FFC819" stroke-width="0.580569"/>
<path d="M367.548 380.225C367.548 380.225 397.561 348.204 391.112 326.054C384.832 304.482 344.134 292.844 344.134 292.844C344.134 292.844 287.983 279.14 271.387 250.843C243.056 202.535 346.398 178.373 336.759 123.206C326.025 61.7684 210.859 24.9494 210.859 24.9494" stroke="#FCC822" stroke-width="0.870854"/>
<circle cx="273.378" cy="185.558" r="2.98231" fill="url(#paint7_linear_2_773)"/>
<circle cx="288.29" cy="204.288" r="2.98231" fill="url(#paint8_linear_2_773)"/>
<circle cx="297.734" cy="204.289" r="1.49115" fill="url(#paint9_linear_2_773)"/>
<circle cx="294.968" cy="210.966" r="1.49115" transform="rotate(45 294.968 210.966)" fill="url(#paint10_linear_2_773)"/>
<circle cx="288.13" cy="213.732" r="1.49115" transform="rotate(90 288.13 213.732)" fill="url(#paint11_linear_2_773)"/>
<circle cx="281.452" cy="210.967" r="1.49115" transform="rotate(135 281.452 210.967)" fill="url(#paint12_linear_2_773)"/>
<circle cx="278.846" cy="204.289" r="1.49115" fill="url(#paint13_linear_2_773)"/>
<circle cx="281.612" cy="197.611" r="1.49115" transform="rotate(45 281.612 197.611)" fill="url(#paint14_linear_2_773)"/>
<circle cx="288.13" cy="194.845" r="1.49115" transform="rotate(90 288.13 194.845)" fill="url(#paint15_linear_2_773)"/>
<circle cx="294.807" cy="197.61" r="1.49115" transform="rotate(135 294.807 197.61)" fill="url(#paint16_linear_2_773)"/>
<path d="M256.095 282.211L258.694 282.677C261.456 283.169 263.294 285.808 262.801 288.569L262.324 291.236C261.831 293.997 259.192 295.835 256.431 295.342L253.831 294.877C251.07 294.384 249.232 291.745 249.725 288.984L250.202 286.318C250.695 283.556 253.334 281.718 256.095 282.211ZM273.39 210.458C280.144 211.665 284.822 215.001 287.424 220.464C289.495 224.779 290.071 229.514 289.15 234.668C287.609 243.29 282.239 250.792 273.04 257.173C269.833 259.397 267.819 262.294 266.997 265.862C266.694 267.045 266.41 268.371 266.149 269.838C265.655 272.599 263.017 274.437 260.255 273.943L257.655 273.479C254.894 272.985 253.056 270.347 253.549 267.586V267.585C254.955 259.719 257.932 254.222 262.482 251.09C267.398 247.703 271.022 243.972 273.357 239.894C274.699 237.52 275.62 234.933 276.121 232.133C276.636 229.244 276.397 226.863 275.402 224.987C274.32 222.823 272.393 221.676 269.62 221.547C267.03 221.406 264.894 222.836 263.212 225.837C263.127 225.981 263.044 226.13 262.962 226.282C261.77 228.5 259.121 229.498 256.757 228.633L254.44 227.784C251.571 226.735 250.263 223.399 251.665 220.685C253.056 217.987 254.893 215.699 257.174 213.819C259.646 211.785 262.8 210.559 266.636 210.144C268.648 209.909 270.9 210.012 273.39 210.458Z" fill="#AEDBED"/>
<path d="M157.374 292.852L159.533 292.955C161.826 293.064 163.597 295.011 163.487 297.304L163.381 299.519C163.272 301.812 161.325 303.582 159.032 303.474L156.873 303.371C154.58 303.261 152.81 301.314 152.919 299.021L153.024 296.806C153.133 294.513 155.081 292.743 157.374 292.852ZM163.841 232.791C169.45 233.058 173.598 235.272 176.286 239.432C178.422 242.715 179.389 246.497 179.185 250.777C178.845 257.938 175.278 264.593 168.485 270.742C166.116 272.886 164.788 275.449 164.498 278.432C164.375 279.424 164.286 280.53 164.228 281.748C164.118 284.041 162.172 285.811 159.878 285.703L157.719 285.6C155.425 285.49 153.656 283.543 153.764 281.25C154.075 274.717 155.912 269.941 159.274 266.92C162.906 263.652 165.455 260.242 166.919 256.685C167.757 254.616 168.232 252.42 168.343 250.095C168.457 247.697 168.011 245.788 167.006 244.372C165.9 242.729 164.214 242.002 161.95 242.189C159.834 242.348 158.251 243.733 157.202 246.347C157.148 246.474 157.097 246.603 157.046 246.734C156.313 248.66 154.269 249.749 152.259 249.297L150.288 248.853C147.849 248.303 146.436 245.735 147.287 243.384C148.132 241.047 149.38 238.997 151.033 237.23C152.825 235.319 155.256 233.991 158.325 233.25C159.934 232.846 161.773 232.692 163.841 232.791" fill="#AEDBED"/>
<path d="M195.455 206.43L197.101 206.141C198.85 205.834 200.516 207.003 200.822 208.751L201.119 210.44C201.425 212.188 200.257 213.854 198.509 214.161L196.862 214.449C195.114 214.757 193.448 213.588 193.141 211.839L192.845 210.152C192.538 208.403 193.707 206.736 195.455 206.43ZM190.14 160.024C194.417 159.273 197.922 160.239 200.655 162.921C202.824 165.035 204.196 167.725 204.769 170.988C205.727 176.448 204.165 182.073 200.085 187.866C198.662 189.884 198.094 192.043 198.382 194.342C198.458 195.113 198.578 195.962 198.741 196.89C199.048 198.639 197.879 200.305 196.131 200.611L194.485 200.9C192.736 201.207 191.07 200.038 190.763 198.29C189.889 193.309 190.464 189.394 192.488 186.545C194.673 183.463 196.017 180.458 196.518 177.527C196.799 175.824 196.784 174.086 196.473 172.313C196.152 170.484 195.492 169.121 194.493 168.223C193.38 167.171 191.985 166.908 190.309 167.434C188.74 167.913 187.78 169.226 187.433 171.377C187.414 171.481 187.397 171.587 187.381 171.696C187.155 173.272 185.797 174.442 184.204 174.441L182.643 174.441C180.709 174.44 179.207 172.742 179.45 170.824C179.691 168.918 180.285 167.159 181.232 165.547C182.26 163.8 183.868 162.386 186.057 161.306C187.202 160.728 188.563 160.3 190.14 160.024" fill="#AEDBED"/>
<path d="M74.9958 256.027L76.0888 256.309C77.2491 256.61 77.9458 257.794 77.6455 258.954L77.3552 260.074C77.0548 261.236 75.8705 261.932 74.7101 261.632L73.6171 261.349C72.4567 261.048 71.7601 259.865 72.0604 258.704L72.3507 257.583C72.651 256.423 73.8354 255.726 74.9958 256.027ZM84.7091 226.018C87.5477 226.754 89.4318 228.328 90.3623 230.741C91.1038 232.647 91.1944 234.683 90.6332 236.85C89.695 240.473 87.1622 243.494 83.0339 245.912C81.5949 246.755 80.642 247.923 80.1752 249.417C80.0072 249.911 79.8431 250.466 79.6837 251.083C79.3833 252.243 78.199 252.94 77.0386 252.639L75.9463 252.357C74.786 252.056 74.0885 250.872 74.3889 249.712C75.245 246.405 76.6933 244.161 78.7346 242.975C80.9392 241.692 82.6059 240.221 83.7337 238.56C84.3824 237.592 84.86 236.52 85.1642 235.343C85.4785 234.13 85.4545 233.107 85.0915 232.275C84.7021 231.318 83.9179 230.766 82.7406 230.621C81.6421 230.475 80.6853 231.014 79.8702 232.239C79.8292 232.298 79.7889 232.359 79.7495 232.421C79.1689 233.326 78.0078 233.665 77.0285 233.22L76.0694 232.782C74.8812 232.24 74.4322 230.777 75.1188 229.667C75.8 228.563 76.657 227.648 77.6896 226.921C78.8097 226.135 80.1938 225.716 81.8418 225.664C82.7073 225.63 83.6633 225.748 84.7091 226.018Z" fill="#AEDBED"/>
<path d="M117.927 260.815L121.3 259.949C124.883 259.028 128.532 261.187 129.453 264.77L130.341 268.229C131.261 271.812 129.102 275.462 125.52 276.382L122.146 277.248C118.564 278.168 114.914 276.009 113.993 272.427L113.106 268.967C112.185 265.384 114.344 261.734 117.927 260.815ZM99.3856 165.269C108.149 163.018 115.587 164.459 121.7 169.588C126.547 173.63 129.83 178.995 131.548 185.683C134.42 196.87 132.086 208.808 124.544 221.5C121.915 225.925 121.085 230.502 122.053 235.232C122.337 236.818 122.723 238.563 123.212 240.466C124.132 244.049 121.974 247.699 118.391 248.618L115.017 249.484C111.435 250.405 107.784 248.247 106.865 244.664C104.244 234.457 104.806 226.231 108.549 219.984C112.591 213.23 114.896 206.769 115.463 200.599C115.773 197.016 115.461 193.408 114.528 189.776C113.566 186.029 111.975 183.303 109.755 181.598C107.273 179.594 104.332 179.273 100.934 180.637C97.7515 181.884 95.9711 184.769 95.5964 189.291C95.5747 189.511 95.5562 189.735 95.5414 189.962C95.3255 193.274 92.6951 195.923 89.3851 196.179L86.1401 196.43C82.1241 196.742 78.7289 193.457 78.9232 189.433C79.1168 185.435 80.0666 181.684 81.7727 178.181C83.6243 174.387 86.7377 171.19 91.1113 168.592C93.398 167.207 96.1553 166.098 99.3856 165.269" fill="#AEDBED"/>
<path d="M338.702 263.043L341.086 262.431C343.618 261.78 346.197 263.306 346.847 265.837L347.475 268.283C348.125 270.814 346.6 273.393 344.068 274.043L341.684 274.656C339.153 275.306 336.574 273.78 335.923 271.249L335.295 268.804C334.645 266.272 336.17 263.693 338.702 263.043ZM325.6 195.523C331.793 193.933 337.05 194.951 341.368 198.576C344.794 201.431 347.114 205.223 348.328 209.949C350.358 217.854 348.708 226.291 343.379 235.26C341.521 238.386 340.934 241.621 341.619 244.964C341.819 246.085 342.092 247.318 342.437 248.663C343.087 251.194 341.562 253.773 339.03 254.423L336.646 255.036C334.115 255.686 331.536 254.16 330.885 251.629C329.033 244.417 329.43 238.604 332.075 234.189C334.932 229.416 336.56 224.85 336.962 220.489C337.18 217.958 336.961 215.408 336.301 212.841C335.621 210.193 334.497 208.267 332.928 207.062C331.173 205.646 329.096 205.419 326.695 206.382C324.445 207.264 323.187 209.303 322.922 212.498C322.906 212.654 322.894 212.812 322.883 212.972C322.731 215.314 320.872 217.185 318.533 217.366L316.24 217.544C313.401 217.764 311.002 215.443 311.14 212.599C311.276 209.774 311.947 207.123 313.153 204.647C314.462 201.966 316.662 199.707 319.753 197.871C321.368 196.892 323.317 196.109 325.6 195.523" fill="#AEDBED"/>
<path d="M327.799 151.023L329.116 150.685C330.516 150.326 331.942 151.168 332.301 152.568L332.648 153.919C333.008 155.319 332.164 156.745 330.765 157.103L329.447 157.442C328.047 157.801 326.621 156.958 326.263 155.559L325.915 154.207C325.556 152.808 326.399 151.383 327.799 151.023ZM320.556 113.702C323.979 112.823 326.885 113.385 329.272 115.39C331.166 116.968 332.448 119.063 333.119 121.676C334.241 126.045 333.33 130.709 330.383 135.666C329.357 137.395 329.033 139.182 329.41 141.03C329.521 141.65 329.672 142.331 329.863 143.074C330.222 144.474 329.379 145.9 327.98 146.259L326.662 146.597C325.263 146.956 323.837 146.113 323.478 144.715C322.454 140.727 322.674 137.515 324.136 135.074C325.715 132.436 326.615 129.912 326.837 127.502C326.957 126.103 326.836 124.693 326.471 123.274C326.096 121.811 325.474 120.746 324.606 120.08C323.637 119.298 322.489 119.172 321.161 119.704C319.918 120.192 319.223 121.319 319.076 123.085C319.068 123.172 319.06 123.259 319.055 123.347C318.97 124.642 317.943 125.676 316.65 125.776L315.382 125.874C313.814 125.995 312.488 124.713 312.564 123.141C312.64 121.579 313.011 120.114 313.677 118.746C314.4 117.264 315.616 116.014 317.325 115C318.218 114.459 319.295 114.026 320.556 113.702" fill="#AEDBED"/>
<path d="M150.999 174.295C150.999 174.295 158.624 137.121 141.251 138.953L124.642 173.534C124.642 173.534 135.775 178.098 150.999 174.295Z" fill="#361710"/>
<path d="M112.289 174.295C112.289 174.295 108.063 144.15 121.176 136.5L138.647 173.534C138.647 173.534 127.515 178.098 112.289 174.295Z" fill="#361710"/>
<path d="M85.3732 165.959H87.3952C89.5425 165.959 91.2834 167.699 91.2834 169.846V171.92C91.2834 174.068 89.5425 175.808 87.3952 175.808H85.3732C83.2259 175.808 81.4857 174.068 81.4857 171.92V169.846C81.4857 167.699 83.2259 165.959 85.3732 165.959ZM88.7436 109.557C93.9958 109.557 97.97 111.44 100.666 115.207C102.809 118.179 103.88 121.67 103.88 125.679C103.88 132.384 100.843 138.76 94.7715 144.808C92.6536 146.916 91.5265 149.37 91.3879 152.17C91.3183 153.102 91.2834 154.138 91.2834 155.279C91.2834 157.427 89.5425 159.167 87.3952 159.167H85.3732C83.2259 159.167 81.4857 157.427 81.4857 155.279C81.4857 149.162 82.989 144.618 85.9956 141.646C89.2437 138.431 91.4723 135.131 92.683 131.744C93.3735 129.774 93.7195 127.701 93.7195 125.523C93.7195 123.277 93.2187 121.515 92.2162 120.236C91.11 118.751 89.503 118.144 87.3952 118.421C85.4251 118.663 84.0077 120.029 83.1446 122.516C83.0997 122.637 83.0571 122.76 83.0161 122.886C82.417 124.718 80.5553 125.827 78.6572 125.494L76.7963 125.166C74.4926 124.761 73.0582 122.424 73.7487 120.19C74.4345 117.969 75.5105 115.998 76.9751 114.273C78.5651 112.408 80.7767 111.06 83.6114 110.231C85.0969 109.782 86.8068 109.557 88.7436 109.557" fill="#FCC822"/>
<path d="M133.747 318.671C133.747 318.671 132.784 322.389 131.054 321.828C127.818 320.783 127.629 318.671 127.629 318.671C127.629 318.671 125.588 324.823 125.977 327.753C126.366 330.683 125.977 337.271 125.977 337.271H128.93C128.93 337.271 131.692 337.607 132.837 339.272C133.983 340.937 140.257 340.443 142.245 339.375C144.793 338.007 138.106 331.046 135.741 327.167C133.375 323.288 133.747 318.671 133.747 318.671Z" fill="#1C0906"/>
<path d="M128.22 263.918C130.261 258.877 137.54 258.934 139.335 264.065C139.659 264.99 139.893 265.959 140.047 266.939C140.801 271.751 140.044 279.464 138.056 289.316C135.375 302.607 133.926 329.121 129.27 329.511C124.613 329.901 127.35 307.606 127.252 294.422C127.156 281.238 125.078 271.679 128.027 264.398L128.22 263.918Z" fill="#CF9166"/>
<path d="M130.899 301.949C130.262 284.558 131.419 271.657 128.645 262.487L128.463 261.884C126.542 255.537 120.672 256.667 119.501 263.692C119.29 264.958 119.154 266.268 119.083 267.583C118.736 274.035 119.765 284.091 121.903 296.787C124.789 313.917 125.49 329.673 129.27 329.511C133.048 329.349 131.536 319.341 130.899 301.949Z" fill="#EDAC7C"/>
<path d="M125.623 321.729C125.623 321.729 126.447 328.297 128.739 327.9C130.993 327.509 131.74 321.729 131.74 321.729C131.74 321.729 133.781 327.881 133.393 330.811C133.174 332.462 133.201 335.274 133.267 337.415C133.316 339.011 132.036 340.328 130.44 340.328C130.44 340.328 127.678 340.664 126.532 342.329C125.387 343.995 119.113 343.501 117.124 342.433C114.576 341.065 121.263 334.105 123.629 330.226C125.995 326.346 125.623 321.729 125.623 321.729Z" fill="#361710"/>
<path d="M145.157 222.071L130.373 219.394V219.291L130.09 219.343L129.806 219.291V219.394L115.022 222.071C115.022 222.071 109.794 229.858 110.817 239.018C111.84 248.177 116.555 297.714 116.555 297.714H142.005C142.005 297.714 148.339 248.177 149.362 239.018C150.385 229.858 145.157 222.071 145.157 222.071Z" fill="#195172"/>
<path d="M146.919 225.37C145.987 223.307 145.157 222.07 145.157 222.07L130.373 219.393V219.29L130.09 219.342L129.806 219.29V219.393L115.022 222.07C115.022 222.07 114.193 223.307 113.261 225.37H146.919Z" fill="#0D435E"/>
<path d="M133.269 297.713L133.442 248.226L137.68 297.713" fill="#0D435E"/>
<path d="M110.695 236.062C112.129 236.02 114.546 235.735 118.044 234.629C124.177 232.69 124.229 224.594 124.229 224.594L124.065 220.434L115.022 222.072C115.022 222.072 110.882 228.244 110.695 236.062Z" fill="#0D435E"/>
<path d="M149.485 236.063C149.298 228.244 145.158 222.071 145.158 222.071L135.492 220.321L135.245 224.593C135.245 224.593 135.297 232.689 141.43 234.628C145.587 235.944 148.218 236.099 149.485 236.063Z" fill="#0D435E"/>
<path d="M115.848 180.076L126.351 175.808L134.593 175.897L147.472 181.268C147.472 181.268 140.759 204.344 141.201 210.298C141.643 216.253 145.157 222.991 145.157 222.991H115.848C115.848 222.991 121.095 212.374 119.943 206.111C118.791 199.847 115.848 180.076 115.848 180.076Z" fill="#5C93BC"/>
<path d="M140.489 144C136.925 137.332 118.084 134.97 114.62 155.934C112.094 171.212 129.282 174.814 137.995 172.017C152.817 167.258 144.053 150.668 140.489 144Z" fill="#3E150D"/>
<path d="M143.556 158.183C143.556 158.183 146.219 154.763 148.671 157.01C151.123 159.258 147.619 166.185 142.923 164.556L143.556 158.183Z" fill="#EDAC7C"/>
<path d="M143.317 160.598L142.99 163.878C147.052 164.607 149.369 158.952 147.501 158.168C145.99 157.534 144.115 159.518 143.317 160.598Z" fill="#F7A588"/>
<path d="M148.156 159.339C148.156 159.339 148.148 159.314 148.136 159.267C148.123 159.22 148.101 159.154 148.074 159.07C148.013 158.908 147.909 158.672 147.71 158.503C147.66 158.461 147.602 158.427 147.543 158.398C147.512 158.385 147.482 158.37 147.447 158.359L147.424 158.352L147.423 158.351C147.44 158.357 147.427 158.353 147.43 158.354L147.427 158.353L147.417 158.351L147.402 158.347L147.338 158.329C147.291 158.315 147.256 158.311 147.221 158.305C147.188 158.299 147.151 158.294 147.108 158.291C147.069 158.289 147.029 158.287 146.989 158.287C146.947 158.287 146.906 158.286 146.865 158.291C146.531 158.315 146.178 158.445 145.842 158.625C145.671 158.712 145.508 158.819 145.347 158.925C145.189 159.034 145.032 159.146 144.884 159.259C144.59 159.487 144.321 159.717 144.089 159.915C143.625 160.325 143.317 160.598 143.317 160.598C143.317 160.598 143.356 160.501 143.443 160.34C143.531 160.181 143.664 159.956 143.849 159.703C143.942 159.578 144.045 159.441 144.164 159.305C144.282 159.169 144.414 159.029 144.558 158.892C144.847 158.619 145.185 158.349 145.575 158.141C145.77 158.038 145.977 157.949 146.193 157.889C146.409 157.828 146.637 157.796 146.859 157.804C146.914 157.805 146.968 157.81 147.024 157.818C147.078 157.821 147.131 157.833 147.183 157.845C147.235 157.855 147.288 157.87 147.341 157.888C147.396 157.905 147.447 157.922 147.483 157.941L147.544 157.97L147.583 157.988L147.618 158.006C147.663 158.03 147.705 158.059 147.745 158.089C147.824 158.151 147.893 158.219 147.946 158.291C148.058 158.432 148.113 158.584 148.145 158.715C148.178 158.845 148.182 158.961 148.184 159.052C148.184 159.144 148.173 159.218 148.167 159.266C148.16 159.315 148.156 159.339 148.156 159.339Z" fill="#CF9166"/>
<path d="M118.86 157.916C118.86 157.916 116.271 154.44 113.772 156.634C111.271 158.827 114.626 165.829 119.356 164.301L118.86 157.916Z" fill="#EDAC7C"/>
<path d="M119.048 160.337L119.303 163.623C115.228 164.266 113.032 158.562 114.917 157.818C116.44 157.217 118.273 159.24 119.048 160.337Z" fill="#F7A588"/>
<path d="M114.238 158.975C114.238 158.975 114.245 158.951 114.259 158.903C114.273 158.856 114.296 158.79 114.325 158.707C114.388 158.545 114.497 158.313 114.702 158.148C114.751 158.107 114.809 158.074 114.87 158.046C114.902 158.035 114.932 158.02 114.965 158.011L114.991 158.003L114.993 158.002C114.973 158.009 114.989 158.003 114.985 158.005H114.989L114.997 158.001L115.012 157.998L115.078 157.982C115.123 157.969 115.159 157.965 115.194 157.96C115.228 157.954 115.266 157.951 115.308 157.95C115.347 157.947 115.386 157.946 115.427 157.948C115.468 157.948 115.509 157.949 115.551 157.955C115.883 157.984 116.234 158.121 116.566 158.31C116.734 158.402 116.896 158.51 117.055 158.621C117.211 158.733 117.365 158.848 117.51 158.965C117.8 159.2 118.064 159.435 118.292 159.637C118.746 160.057 119.048 160.337 119.048 160.337C119.048 160.337 119.01 160.239 118.927 160.077C118.844 159.916 118.715 159.687 118.535 159.43C118.445 159.304 118.345 159.164 118.228 159.026C118.112 158.888 117.986 158.745 117.845 158.604C117.562 158.326 117.23 158.049 116.844 157.831C116.652 157.726 116.446 157.632 116.231 157.567C116.015 157.501 115.789 157.464 115.568 157.467C115.511 157.467 115.457 157.472 115.402 157.477C115.347 157.48 115.295 157.489 115.24 157.501C115.19 157.509 115.138 157.523 115.083 157.541C115.028 157.557 114.977 157.573 114.94 157.592L114.879 157.618L114.84 157.635L114.805 157.653C114.758 157.676 114.715 157.704 114.674 157.733C114.596 157.794 114.526 157.86 114.469 157.93C114.355 158.07 114.297 158.221 114.262 158.349C114.226 158.479 114.219 158.594 114.216 158.687C114.214 158.78 114.223 158.853 114.228 158.901C114.234 158.949 114.238 158.975 114.238 158.975Z" fill="#CF9166"/>
<path d="M134.043 168.703L127.357 168.629C127.357 168.629 126.987 179.096 126.962 179.096C126.962 179.096 127.431 181.189 130.396 181.267C133.362 181.344 134.117 179.172 134.117 179.172C134.093 179.114 134.043 168.703 134.043 168.703Z" fill="#EDAC7C"/>
<path d="M134.117 172.555L127.147 172.322C127.147 172.322 127.108 176.174 127.083 176.174C127.083 176.174 127.458 178.622 130.424 178.7C133.39 178.778 134.088 176.529 134.088 176.529C134.065 176.471 134.117 172.555 134.117 172.555Z" fill="#CF9166"/>
<path d="M134.022 170.627L127.336 170.555C127.336 170.555 127.237 171.891 127.148 173.028C127.134 173.192 129.052 173.504 129.261 173.539C130.894 173.816 132.508 173.623 134.105 173.235C134.065 172.07 134.022 170.627 134.022 170.627Z" fill="#CF9166"/>
<path d="M146.966 155.459C146.876 163.796 139.569 170.477 130.646 170.381C121.723 170.285 114.563 163.447 114.652 155.11C114.742 146.772 122.048 140.091 130.972 140.187C139.894 140.283 147.056 147.12 146.966 155.459Z" fill="#3E150D"/>
<path d="M145.25 155.235C145.139 150.589 143.189 146.182 138.618 144.33C136.295 143.387 133.735 143.115 131.237 143.129C128.769 143.143 126.14 143.274 123.811 144.143C119.64 145.701 118.507 143.158 118.039 147.396C117.993 147.811 117.442 149.586 116.876 154.93C116.775 155.882 116.749 156.828 116.773 157.789C116.831 159.949 117.15 162.118 117.833 164.175C118.66 166.672 120.061 168.996 122.117 170.703C123.285 171.673 124.634 172.421 126.066 172.944C128.431 173.806 130.689 174.107 133.176 173.677C134.862 173.386 136.508 172.853 137.994 172.018C140.461 170.632 142.32 168.457 143.494 165.932C144.48 163.807 145.007 161.489 145.217 159.169C145.331 157.899 145.37 156.607 145.259 155.337C145.256 155.303 145.251 155.269 145.25 155.235Z" fill="#EDAC7C"/>
<path d="M135.38 159.63C135.314 160.949 136.244 162.066 137.455 162.125C138.668 162.185 139.703 161.162 139.769 159.843C139.835 158.524 138.907 157.407 137.694 157.348C136.482 157.288 135.446 158.311 135.38 159.63Z" fill="#CF9166"/>
<path d="M135.408 159.072C135.341 160.392 136.271 161.508 137.482 161.568C138.695 161.628 139.73 160.605 139.796 159.286C139.863 157.967 138.934 156.849 137.721 156.79C136.51 156.732 135.473 157.753 135.408 159.072Z" fill="black"/>
<path d="M136.193 158.461C136.169 158.939 136.545 159.346 137.03 159.369C137.517 159.393 137.93 159.026 137.954 158.547C137.978 158.07 137.603 157.664 137.118 157.64C136.631 157.615 136.217 157.984 136.193 158.461Z" fill="white"/>
<path d="M122.293 159.115C122.227 160.434 123.156 161.551 124.367 161.61C125.58 161.67 126.615 160.647 126.681 159.328C126.747 158.009 125.819 156.891 124.606 156.833C123.396 156.775 122.358 157.795 122.293 159.115Z" fill="#CF9166"/>
<path d="M122.321 158.556C122.254 159.876 123.185 160.992 124.395 161.053C125.608 161.112 126.643 160.091 126.709 158.77C126.777 157.452 125.847 156.333 124.635 156.275C123.424 156.216 122.387 157.238 122.321 158.556Z" fill="black"/>
<path d="M123.106 157.946C123.083 158.424 123.456 158.831 123.943 158.854C124.429 158.878 124.844 158.511 124.868 158.031C124.891 157.554 124.517 157.147 124.029 157.124C123.544 157.1 123.13 157.468 123.106 157.946Z" fill="white"/>
<path d="M130.026 157.66C130.026 157.66 130.348 160.565 128.98 160.323C126.333 159.86 126.326 165.533 130.323 163.421C131.832 162.624 131.335 157.7 131.335 157.7L130.026 157.66Z" fill="#F48470"/>
<path d="M127.221 165.976C127.221 165.976 132.547 166.862 135.079 163.81C135.079 163.81 137.207 169.512 131.488 170.244C127.875 170.704 127.221 165.976 127.221 165.976Z" fill="#B43128"/>
<path d="M129.032 169.572C129.637 170.071 130.437 170.377 131.487 170.244C132.785 170.076 133.677 169.655 134.284 169.103C134.458 168.937 134.613 168.759 134.754 168.574C134.758 168.57 134.761 168.565 134.763 168.562C134.766 168.558 134.766 168.557 134.768 168.555C135.204 167.938 135.391 167.232 135.447 166.555C132.233 165.714 129.929 168.227 129.032 169.572Z" fill="#F05736"/>
<path d="M127.221 165.976C127.221 165.976 127.228 166.017 127.24 166.089C127.758 166.196 128.718 167.323 130.01 167.278C130.827 167.251 131.629 167.025 132.364 166.679C132.821 166.464 133.291 166.258 133.686 165.941C133.989 165.7 134.206 164.984 134.334 164.541C131.633 166.709 127.222 165.976 127.221 165.976Z" fill="white"/>
<path d="M127.577 166.311C127.808 167.378 128.699 170.312 131.451 169.96C132.976 169.766 134.048 169.184 134.636 168.234C135.448 166.921 135.158 165.198 134.948 164.379C132.66 166.649 128.832 166.448 127.577 166.311ZM130.958 170.558C127.599 170.523 126.941 166.063 126.935 166.014C126.922 165.926 126.953 165.836 127.02 165.773C127.086 165.71 127.178 165.681 127.27 165.696C127.321 165.704 132.462 166.518 134.854 163.63C134.92 163.552 135.024 163.512 135.127 163.53C135.23 163.547 135.315 163.616 135.351 163.713C135.393 163.825 136.373 166.515 135.133 168.527C134.449 169.633 133.236 170.307 131.526 170.525C131.327 170.551 131.139 170.561 130.958 170.558Z" fill="#F05B4E"/>
<path d="M125.148 165.665C125.135 166.882 124.121 167.859 122.883 167.845C121.644 167.831 120.649 166.834 120.662 165.616C120.676 164.398 121.691 163.423 122.929 163.435C124.168 163.45 125.162 164.447 125.148 165.665Z" fill="#F49B77"/>
<path d="M141.25 164.421C141.237 165.638 140.222 166.615 138.982 166.601C137.745 166.588 136.751 165.591 136.764 164.373C136.778 163.156 137.792 162.18 139.03 162.193C140.269 162.207 141.263 163.205 141.25 164.421Z" fill="#F49B77"/>
<path d="M120.782 153.09C120.782 153.09 120.832 152.999 120.948 152.857C121.007 152.789 121.078 152.7 121.171 152.615C121.261 152.524 121.368 152.43 121.493 152.332C121.617 152.235 121.757 152.138 121.911 152.043C122.067 151.953 122.233 151.855 122.416 151.779C122.593 151.691 122.787 151.624 122.985 151.558C123.183 151.49 123.392 151.452 123.597 151.398C123.805 151.366 124.016 151.334 124.222 151.314C124.429 151.302 124.634 151.297 124.829 151.298C125.028 151.309 125.217 151.326 125.395 151.343C125.576 151.364 125.741 151.405 125.895 151.435C126.046 151.47 126.185 151.499 126.306 151.546C126.426 151.587 126.53 151.627 126.614 151.659C126.782 151.724 126.877 151.771 126.877 151.771C126.877 151.771 126.77 151.785 126.59 151.798C126.501 151.805 126.392 151.814 126.269 151.817C126.148 151.818 126.009 151.834 125.859 151.847C125.71 151.86 125.55 151.86 125.382 151.878C125.213 151.897 125.038 151.914 124.857 151.927C124.676 151.951 124.492 151.979 124.301 152C124.116 152.032 123.928 152.063 123.738 152.097C123.644 152.117 123.551 152.138 123.458 152.158C123.363 152.178 123.27 152.193 123.181 152.221C123.089 152.245 122.998 152.268 122.908 152.289C122.817 152.31 122.734 152.343 122.646 152.366C122.471 152.413 122.307 152.471 122.147 152.523C122.067 152.547 121.993 152.581 121.919 152.606C121.845 152.633 121.771 152.656 121.704 152.687C121.567 152.74 121.44 152.79 121.33 152.839C121.215 152.885 121.12 152.932 121.036 152.968C120.96 153.007 120.892 153.033 120.851 153.057C120.806 153.078 120.782 153.09 120.782 153.09Z" fill="black"/>
<path d="M139.869 156.277C139.869 156.277 139.808 156.192 139.676 156.067C139.607 156.007 139.527 155.928 139.425 155.853C139.323 155.777 139.203 155.697 139.07 155.616C138.934 155.535 138.782 155.457 138.617 155.384C138.45 155.313 138.273 155.238 138.082 155.186C137.894 155.122 137.694 155.079 137.49 155.039C137.285 154.997 137.073 154.986 136.863 154.961C136.651 154.954 136.44 154.949 136.232 154.956C136.024 154.971 135.821 154.992 135.625 155.017C135.431 155.054 135.246 155.095 135.07 155.134C134.896 155.178 134.737 155.24 134.589 155.291C134.442 155.344 134.307 155.391 134.195 155.452C134.081 155.508 133.983 155.562 133.904 155.605C133.743 155.692 133.657 155.748 133.657 155.748C133.657 155.748 133.765 155.75 133.944 155.74C134.033 155.735 134.142 155.73 134.266 155.718C134.386 155.703 134.525 155.701 134.676 155.693C134.824 155.688 134.983 155.668 135.154 155.664C135.323 155.661 135.499 155.656 135.68 155.646C135.862 155.648 136.051 155.651 136.24 155.646C136.429 155.653 136.62 155.662 136.812 155.67C136.908 155.678 137.003 155.686 137.098 155.694C137.192 155.702 137.288 155.706 137.381 155.722C137.474 155.736 137.567 155.745 137.659 155.755C137.752 155.764 137.841 155.785 137.929 155.798C138.11 155.822 138.279 155.859 138.445 155.89C138.528 155.902 138.604 155.927 138.681 155.942C138.758 155.959 138.835 155.973 138.905 155.994C139.047 156.031 139.18 156.063 139.296 156.097C139.416 156.129 139.515 156.163 139.601 156.188C139.683 156.217 139.754 156.234 139.799 156.252C139.844 156.268 139.869 156.277 139.869 156.277Z" fill="black"/>
<path d="M145.059 162.168C145.059 162.168 145.411 161.519 146.081 160.28C148.589 155.641 149.648 150.197 148.295 145.101C147.567 142.36 146.069 141.028 144.849 140.381C143.599 139.72 137.914 136.13 134.502 135.093C128.342 133.222 121.782 135.17 117.173 138.37C112.565 141.57 106.552 152.054 111.537 152.162C116.522 152.27 124.1 145.257 121.848 147.065C118.625 149.653 121.78 149.927 128.994 150.174C136.207 150.42 140.484 147.911 140.484 147.911C140.484 147.911 140.212 150.118 141.275 153.389C142.337 156.66 145.285 160.386 145.285 160.386" fill="#361710"/>
<path d="M122.475 177.384L124.229 221.965C124.229 221.965 124.177 230.061 118.044 232.001C111.911 233.941 109.089 233.359 109.089 233.359C109.089 233.359 115.756 204.623 114.419 198.188C113.082 191.753 111.034 181.471 111.034 181.471L122.475 177.384Z" fill="#122738"/>
<path d="M137.83 177.265L135.246 221.965C135.246 221.965 135.298 230.061 141.431 232.001C147.564 233.941 150.386 233.359 150.386 233.359C150.386 233.359 143.718 204.623 145.055 198.188C146.393 191.753 148.441 181.472 148.441 181.472L137.83 177.265Z" fill="#122738"/>
<path d="M155.326 190.03C155.326 190.03 167.7 204.682 167.723 209.292C167.745 213.902 161.253 212.447 161.253 212.447L149.525 195.707L155.326 190.03Z" fill="#EDAC7C"/>
<path d="M155.326 190.03L149.525 195.706L154.187 202.361C154.187 202.361 156.952 198.238 161.962 198.548C158.724 194.055 155.326 190.03 155.326 190.03Z" fill="#CF9166"/>
<path d="M110.321 191.422C110.321 191.422 93.7888 201.143 89.2418 200.386C84.694 199.629 87.2253 193.476 87.2253 193.476L105.707 184.746L110.321 191.422Z" fill="#EDAC7C"/>
<path d="M96.6205 198.442C102.89 195.79 110.321 191.423 110.321 191.423L105.708 184.746L96.6158 189.04C96.6158 189.04 99.987 196.371 96.6205 198.442" fill="#CF9166"/>
<path d="M164.927 212.534C164.96 212.515 164.993 212.495 165.027 212.475C166.328 211.688 167.286 210.416 167.941 209.041C169.335 206.117 170.072 202.728 171.133 199.66C171.958 197.269 172.707 194.692 173.718 192.287C173.563 192.216 173.418 192.126 173.289 192.004C172.003 190.8 171.37 189.984 169.89 189.027C169.466 192.72 164.283 199.971 162.119 205.733C161.692 206.872 161.32 208.051 161.278 209.266C161.2 211.552 162.443 213.97 164.927 212.534Z" fill="#EEC9B1"/>
<path d="M162.179 213.484C162.824 213.871 163.897 214.155 165.372 213.305L165.487 213.236C166.811 212.435 167.937 211.116 168.744 209.424C169.688 207.445 170.337 205.271 170.964 203.169C171.283 202.097 171.614 200.99 171.973 199.951C172.225 199.222 172.47 198.475 172.717 197.721C173.273 196.026 173.848 194.274 174.538 192.631L174.874 191.832L174.084 191.475C174.007 191.44 173.946 191.402 173.897 191.355C173.556 191.036 173.262 190.744 172.986 190.471C172.204 189.697 171.531 189.028 170.373 188.28L169.17 187.502L169.006 188.925C168.788 190.826 167.082 193.964 165.275 197.287C163.791 200.014 162.258 202.833 161.287 205.421C160.869 206.533 160.435 207.856 160.389 209.236C160.324 211.126 161.027 212.792 162.179 213.484Z" fill="#EDAC7C"/>
<path d="M172.809 189.823C172.81 189.817 173.793 186.851 174.171 186.736C174.551 186.62 175.225 186.89 175.225 186.89L174.089 191.143C174.089 191.143 175.672 187.582 176.291 187.277C176.908 186.97 177.598 187.294 177.598 187.294L175.709 192.191C175.709 192.191 176.826 188.654 177.487 188.097C178.148 187.542 178.93 187.778 178.93 187.778L177.336 193.06L177.193 192.392C177.193 192.392 178.283 190.521 178.95 190.379C179.616 190.235 180.258 190.396 180.258 190.396C180.258 190.396 179.059 192.299 178.542 193.522C178.025 194.745 177.087 194.971 177.087 194.971C174.983 194.327 173.19 192.757 171.46 191.414C170.124 190.375 169.17 187.501 169.17 187.501C169.17 187.501 170.984 185.823 172.809 189.823" fill="#EDAC7C"/>
<path d="M87.6741 198.548C87.6494 198.518 87.6246 198.489 87.6006 198.459C86.6461 197.274 86.1794 195.753 86.0323 194.236C85.7203 191.012 86.1832 187.575 86.2336 184.328C86.273 181.8 86.4487 179.121 86.3195 176.516C86.4882 176.502 86.657 176.467 86.8195 176.397C88.4389 175.704 89.3121 175.152 91.0298 174.758C90.1683 178.374 92.5656 186.958 92.6337 193.113C92.6469 194.33 92.5943 195.564 92.2188 196.722C91.5121 198.897 89.5188 200.747 87.6741 198.548Z" fill="#EEC9B1"/>
<path d="M89.9326 200.378C89.1941 200.522 88.0895 200.424 86.9926 199.12L86.9075 199.016C85.936 197.812 85.3276 196.188 85.1464 194.321C84.9351 192.139 85.0675 189.875 85.1952 187.685C85.2602 186.569 85.3276 185.415 85.3446 184.315C85.3562 183.544 85.381 182.758 85.4057 181.966C85.4615 180.182 85.5188 178.339 85.4313 176.559L85.3879 175.693L86.2518 175.628C86.3362 175.622 86.4066 175.606 86.4693 175.579C86.899 175.396 87.2736 175.222 87.6274 175.059C88.6252 174.597 89.4868 174.199 90.8306 173.891L92.227 173.569L91.8957 174.964C91.4514 176.824 91.9855 180.357 92.5498 184.097C93.0135 187.166 93.4927 190.34 93.5236 193.104C93.5368 194.292 93.4927 195.682 93.0654 196.996C92.4809 198.794 91.2517 200.121 89.9326 200.378Z" fill="#EDAC7C"/>
<path d="M88.0144 174.51C88.0144 174.504 88.1042 171.381 87.7876 171.143C87.4694 170.906 86.7441 170.928 86.7441 170.928L86.3609 175.315C86.3609 175.315 86.0876 171.427 85.6108 170.929C85.1347 170.43 84.3754 170.498 84.3754 170.498L84.4799 175.747C84.4799 175.747 84.637 172.04 84.2058 171.293C83.7747 170.545 82.9588 170.499 82.9588 170.499L82.6553 176.008L83.0176 175.429C83.0176 175.429 82.6313 173.3 82.0531 172.937C81.4748 172.574 80.8176 172.506 80.8176 172.506C80.8176 172.506 81.2945 174.706 81.3634 176.032C81.4323 177.358 82.2365 177.889 82.2365 177.889C84.4342 178.002 86.6558 177.138 88.7397 176.465C90.3506 175.946 92.227 173.569 92.227 173.569C92.227 173.569 91.0952 171.373 88.0144 174.51Z" fill="#EDAC7C"/>
<path d="M148.441 181.471C148.441 181.471 158.517 189.525 160.92 194.24L150.327 201.887L142.31 190.031L148.441 181.471Z" fill="#122738"/>
<path d="M111.035 181.47C111.035 181.47 102.369 185.717 97.1919 188.465L101.861 199.895L116.659 194.439L111.035 181.47Z" fill="#122738"/>
<path d="M131.231 338.799C129.798 339.099 127.587 338.262 125.927 340.83C124.328 343.306 120.568 343.267 120.297 343.262C122.809 343.584 125.779 343.426 126.532 342.33C127.678 340.665 130.44 340.329 130.44 340.329C132.036 340.329 133.316 339.011 133.267 337.416C133.264 337.323 133.262 337.221 133.26 337.125C132.743 337.833 132.006 338.638 131.231 338.799Z" fill="#1C0906"/>
<path d="M282.959 140.017L284.151 140.439C285.418 140.887 286.08 142.278 285.632 143.544L285.199 144.767C284.751 146.033 283.36 146.696 282.094 146.247L280.902 145.825C279.636 145.376 278.973 143.986 279.422 142.72L279.854 141.497C280.303 140.231 281.693 139.568 282.959 140.017ZM296.727 107.461C299.825 108.558 301.775 110.5 302.578 113.284C303.22 115.485 303.124 117.767 302.286 120.131C300.886 124.084 297.763 127.21 292.919 129.508C291.23 130.309 290.052 131.519 289.386 133.142C289.15 133.678 288.913 134.281 288.674 134.954C288.226 136.22 286.836 136.883 285.57 136.435L284.378 136.012C283.112 135.564 282.448 134.174 282.897 132.907C284.175 129.3 286.011 126.935 288.405 125.81C290.991 124.593 292.995 123.113 294.416 121.368C295.235 120.351 295.873 119.2 296.327 117.916C296.796 116.592 296.869 115.448 296.545 114.485C296.202 113.377 295.382 112.684 294.081 112.407C292.869 112.138 291.748 112.648 290.719 113.934C290.668 113.996 290.617 114.06 290.566 114.126C289.83 115.08 288.501 115.346 287.451 114.752L286.423 114.17C285.148 113.451 284.791 111.773 285.665 110.6C286.532 109.434 287.579 108.496 288.803 107.785C290.13 107.016 291.716 106.683 293.56 106.786C294.53 106.833 295.586 107.057 296.727 107.461Z" fill="#FCC822"/>
<path d="M199.689 143.614L201.432 143.955C203.284 144.317 204.49 146.112 204.128 147.962L203.778 149.751C203.416 151.601 201.622 152.808 199.771 152.446L198.027 152.105C196.177 151.743 194.97 149.949 195.332 148.098L195.682 146.31C196.044 144.459 197.838 143.251 199.689 143.614ZM212.11 95.5595C216.638 96.4459 219.747 98.7403 221.435 102.442C222.781 105.367 223.116 108.557 222.439 112.012C221.308 117.793 217.614 122.777 211.36 126.966C209.178 128.427 207.792 130.351 207.2 132.741C206.983 133.534 206.778 134.422 206.586 135.405C206.224 137.256 204.429 138.464 202.578 138.101L200.835 137.76C198.983 137.398 197.777 135.603 198.139 133.752C199.172 128.479 201.234 124.815 204.328 122.76C207.67 120.537 210.148 118.068 211.763 115.352C212.691 113.77 213.339 112.041 213.706 110.164C214.085 108.228 213.951 106.624 213.302 105.352C212.599 103.885 211.316 103.091 209.452 102.975C207.713 102.851 206.261 103.788 205.096 105.788C205.038 105.884 204.98 105.983 204.924 106.085C204.098 107.563 202.306 108.204 200.726 107.597L199.177 107.001C197.26 106.263 196.417 104.006 197.39 102.197C198.355 100.398 199.615 98.8796 201.169 97.6411C202.854 96.3003 204.988 95.5115 207.572 95.2747C208.928 95.1384 210.441 95.2329 212.11 95.5595" fill="#FCC822"/>
<path d="M171.587 174.565L172.812 174.25C174.113 173.916 175.439 174.7 175.772 176.001L176.095 177.258C176.429 178.558 175.645 179.884 174.344 180.218L173.119 180.533C171.818 180.867 170.492 180.083 170.158 178.781L169.836 177.525C169.501 176.224 170.285 174.899 171.587 174.565ZM164.853 139.865C168.036 139.047 170.737 139.57 172.957 141.433C174.717 142.901 175.909 144.849 176.533 147.279C177.577 151.341 176.729 155.678 173.99 160.287C173.035 161.894 172.733 163.556 173.085 165.273C173.188 165.849 173.328 166.483 173.506 167.174C173.84 168.476 173.056 169.801 171.755 170.135L170.53 170.45C169.229 170.783 167.904 170 167.569 168.699C166.618 164.992 166.821 162.004 168.181 159.736C169.649 157.283 170.486 154.937 170.692 152.696C170.804 151.395 170.691 150.084 170.353 148.765C170.003 147.404 169.425 146.414 168.619 145.795C167.717 145.067 166.65 144.95 165.415 145.446C164.259 145.899 163.613 146.947 163.477 148.589C163.469 148.669 163.462 148.75 163.456 148.832C163.378 150.036 162.423 150.998 161.221 151.09L160.043 151.182C158.583 151.294 157.351 150.102 157.422 148.64C157.492 147.189 157.836 145.827 158.457 144.554C159.129 143.176 160.259 142.015 161.848 141.071C162.678 140.568 163.679 140.166 164.853 139.865" fill="#FCC822"/>
<path d="M359.156 174.73L360.381 174.416C361.681 174.081 363.007 174.865 363.341 176.166L363.664 177.423C363.998 178.724 363.214 180.05 361.914 180.384L360.687 180.698C359.387 181.033 358.061 180.249 357.727 178.947L357.405 177.691C357.07 176.39 357.854 175.064 359.156 174.73ZM352.422 140.031C355.605 139.213 358.306 139.736 360.526 141.599C362.286 143.067 363.478 145.015 364.102 147.444C365.145 151.507 364.298 155.844 361.559 160.453C360.604 162.06 360.302 163.721 360.654 165.439C360.757 166.015 360.897 166.649 361.075 167.34C361.409 168.641 360.625 169.967 359.324 170.301L358.099 170.616C356.798 170.949 355.472 170.166 355.138 168.865C354.187 165.158 354.39 162.17 355.75 159.902C357.218 157.449 358.055 155.103 358.261 152.861C358.373 151.56 358.26 150.25 357.922 148.931C357.572 147.569 356.994 146.58 356.188 145.961C355.286 145.233 354.218 145.116 352.984 145.612C351.829 146.065 351.182 147.112 351.045 148.755C351.038 148.834 351.031 148.916 351.026 148.998C350.947 150.201 349.992 151.164 348.79 151.256L347.612 151.348C346.153 151.46 344.92 150.267 344.99 148.806C345.061 147.354 345.405 145.992 346.025 144.719C346.698 143.341 347.828 142.181 349.417 141.237C350.247 140.734 351.249 140.332 352.422 140.031" fill="#FCC822"/>
<path d="M220.416 220.704L225.579 198.897L216.189 198.543L211.256 218.672C210.908 220.093 210.989 221.585 211.488 222.959L220.462 247.653L231.21 246.616L220.416 220.704Z" fill="#A7A6BB"/>
<path d="M216.17 217.792C217.128 215.867 218.057 214.146 218.959 212.629C220.206 210.404 221.782 208.516 223.674 206.949L225.58 198.897L216.19 198.543L211.256 218.672C211.013 219.665 210.992 220.69 211.164 221.688C213.261 221.229 215.14 219.865 216.17 217.792Z" fill="#727293"/>
<path d="M229.565 292.641L229.337 293.701L228.136 299.27L222.823 323.922L222.244 326.6L222.114 327.204L221.045 338.912L219.787 339.293C216.591 340.264 213.327 340.054 210.478 338.885C209.312 338.407 208.123 337.242 207.294 336.316C206.355 335.267 205.595 334.063 205.007 332.785C203.317 329.11 202.926 324.924 202.838 320.929C202.808 319.578 202.816 318.227 202.816 316.875V303.629V292.047V287.839C203.792 287.839 204.887 287.717 205.67 287.664C206.376 287.618 207.643 287.382 208.369 287.382C211.216 286.405 214.152 286.672 216.9 286.338C218.205 286.179 219.469 286.103 220.658 286.054C222.315 285.988 223.83 286.087 225.123 286.407C227.834 287.082 229.565 288.863 229.565 292.641Z" fill="#1C1B2D"/>
<path d="M250.881 329.395L222.612 338.438L221.046 338.913L219.787 339.293C216.591 340.264 213.327 340.055 210.478 338.886C209.736 338.468 209.035 337.982 208.385 337.436C208.381 337.433 208.378 337.428 208.374 337.423C206.184 335.402 204.653 332.67 204.125 329.59L220.484 324.63L222.822 323.923L247.126 317.011L250.881 329.395Z" fill="#1C1B2D"/>
<path d="M265.853 331.435C265.489 329.858 264.854 327.906 264.713 327.29C264.174 324.926 263.375 322.619 262.696 320.293C262.448 319.442 262.144 318.854 262.04 318.668C261.987 318.582 261.995 318.587 262.04 318.668C262.115 318.792 262.314 319.098 262.701 319.629C261.992 318.658 261.422 317.744 260.952 316.642C260.423 315.399 260.015 314.154 259.71 312.915L242.233 318.134L246.19 331.387L254.389 328.939C254.896 328.788 255.428 329.075 255.579 329.58L256.423 332.408C256.684 333.284 257.061 334.092 257.516 334.838C257.991 334.672 258.476 334.534 258.973 334.427C261.139 333.96 263.205 333.193 265.279 332.451C265.456 332.105 265.645 331.766 265.853 331.435Z" fill="#361710"/>
<path d="M249.748 320.177C251.284 319.718 252.901 320.592 253.36 322.127C253.818 323.663 252.945 325.28 251.409 325.739C249.873 326.198 248.256 325.324 247.797 323.789C247.339 322.253 248.212 320.636 249.748 320.177Z" fill="white"/>
<path d="M256.498 332.639C258.232 337.991 263.929 341.006 269.347 339.388C269.852 339.236 270.14 338.704 269.989 338.199L267.36 329.396L256.498 332.639Z" fill="white"/>
<path d="M265.807 339.808C266.971 339.871 268.166 339.74 269.347 339.387C269.853 339.237 270.141 338.704 269.99 338.198L262.489 313.083C262.339 312.577 261.806 312.289 261.3 312.441L257.935 313.445L265.807 339.808Z" fill="white"/>
<path d="M250.591 250.168L249.067 253.288L241.084 269.64L227.945 296.553L203.161 286.516L210.75 269.262L216.192 256.893L224.526 237.944L250.591 250.168Z" fill="#A7A6BB"/>
<path d="M246.142 255.528C245.865 255.528 245.342 255.149 244.716 254.619C243.352 261.787 236.334 267.404 229.046 267.404C222.841 267.404 217.765 263.868 215.119 258.817L209.647 271.77L215.444 280.597C216.673 282.42 219.078 283.032 221.03 282.015L239.981 272.149L247.964 255.799C247.378 255.62 246.762 255.528 246.142 255.528Z" fill="#727293"/>
<path d="M238.038 259.463C236.603 259.463 235.237 259.256 233.938 258.903L218.032 291.482L203.556 285.619L203.162 286.516L227.944 296.554L247.719 256.05C244.946 258.175 241.524 259.463 238.038 259.463Z" fill="#727293"/>
<path d="M255.385 228.397C255.385 228.397 259.232 226.157 260.708 229.237C262.185 232.316 256.196 237.575 252.345 234.227L255.385 228.397Z" fill="#EDAC7C"/>
<path d="M254.233 230.607L252.667 233.608C256.258 235.856 260.63 231.354 259.149 229.893C257.953 228.711 255.407 229.884 254.233 230.607Z" fill="#F7A588"/>
<path d="M259.325 231.259C259.325 231.259 259.327 231.232 259.334 231.181C259.34 231.132 259.344 231.06 259.351 230.971C259.355 230.793 259.345 230.529 259.22 230.292C259.189 230.232 259.147 230.178 259.101 230.128C259.077 230.103 259.053 230.078 259.025 230.054L259.005 230.037L259.005 230.036C259.018 230.05 259.008 230.04 259.01 230.042L259.008 230.04L258.999 230.034L258.987 230.024L258.932 229.984C258.893 229.953 258.861 229.934 258.831 229.917C258.801 229.897 258.767 229.879 258.727 229.86C258.692 229.842 258.654 229.824 258.615 229.81C258.576 229.793 258.538 229.776 258.495 229.766C258.169 229.661 257.783 229.65 257.394 229.694C257.197 229.711 257.002 229.75 256.808 229.79C256.615 229.833 256.423 229.88 256.239 229.931C255.87 230.036 255.527 230.152 255.229 230.252C254.632 230.465 254.233 230.607 254.233 230.607C254.233 230.607 254.308 230.531 254.452 230.41C254.598 230.292 254.81 230.129 255.082 229.958C255.219 229.875 255.369 229.783 255.534 229.7C255.699 229.615 255.878 229.533 256.068 229.457C256.448 229.307 256.873 229.179 257.324 229.13C257.55 229.108 257.78 229.101 258.01 229.126C258.239 229.151 258.468 229.208 258.676 229.3C258.729 229.322 258.779 229.348 258.829 229.375C258.879 229.4 258.925 229.432 258.97 229.463C259.016 229.492 259.06 229.526 259.104 229.564C259.149 229.601 259.192 229.637 259.218 229.669L259.266 229.721L259.296 229.752L259.322 229.783C259.357 229.824 259.385 229.866 259.412 229.91C259.464 229.999 259.502 230.09 259.526 230.179C259.579 230.357 259.573 230.523 259.553 230.66C259.536 230.796 259.495 230.908 259.461 230.996C259.426 231.083 259.388 231.149 259.364 231.193C259.339 231.236 259.325 231.259 259.325 231.259Z" fill="#CF9166"/>
<path d="M231.957 218.701C231.957 218.701 230.819 214.398 227.598 215.533C224.377 216.667 224.896 224.621 229.988 224.975L231.957 218.701Z" fill="#EDAC7C"/>
<path d="M231.21 221.078L230.196 224.307C226.068 223.361 226.157 217.087 228.238 217.099C229.918 217.108 230.89 219.738 231.21 221.078Z" fill="#F7A588"/>
<path d="M227.148 217.94C227.148 217.94 227.164 217.92 227.196 217.881C227.227 217.841 227.273 217.787 227.333 217.72C227.454 217.589 227.648 217.409 227.906 217.33C227.968 217.311 228.036 217.302 228.106 217.299C228.14 217.299 228.175 217.296 228.209 217.301L228.237 217.303H228.238C228.218 217.303 228.235 217.303 228.231 217.303L228.234 217.303L228.243 217.304L228.259 217.306L228.327 217.317C228.375 217.321 228.412 217.332 228.446 217.341C228.481 217.347 228.519 217.358 228.559 217.374C228.598 217.385 228.636 217.4 228.673 217.417C228.712 217.433 228.751 217.449 228.789 217.471C229.094 217.626 229.376 217.892 229.621 218.198C229.746 218.35 229.858 218.515 229.967 218.681C230.073 218.848 230.175 219.016 230.269 219.183C230.455 219.518 230.617 219.842 230.757 220.123C231.029 220.697 231.21 221.079 231.21 221.079C231.21 221.079 231.211 220.97 231.194 220.784C231.177 220.599 231.141 220.332 231.068 220.019C231.031 219.863 230.988 219.692 230.93 219.516C230.873 219.34 230.807 219.155 230.726 218.967C230.563 218.594 230.352 218.203 230.068 217.848C229.926 217.673 229.765 217.505 229.585 217.361C229.405 217.217 229.204 217.095 228.991 217.014C228.938 216.991 228.884 216.975 228.83 216.96C228.776 216.941 228.723 216.929 228.666 216.921C228.615 216.909 228.56 216.902 228.501 216.898C228.443 216.892 228.388 216.888 228.345 216.892L228.277 216.893L228.234 216.895L228.194 216.899C228.14 216.902 228.087 216.913 228.037 216.925C227.94 216.953 227.848 216.989 227.767 217.034C227.605 217.124 227.492 217.245 227.41 217.354C227.325 217.464 227.275 217.571 227.237 217.659C227.2 217.746 227.18 217.819 227.166 217.867C227.154 217.915 227.148 217.94 227.148 217.94Z" fill="#CF9166"/>
<path d="M242.298 234.783L235.956 232.157C235.956 232.157 231.601 241.988 231.578 241.978C231.578 241.978 231.223 244.152 234.019 245.36C236.816 246.569 238.366 244.788 238.366 244.788C238.365 244.723 242.298 234.783 242.298 234.783Z" fill="#EDAC7C"/>
<path d="M240.26 240.062L233.488 237.709C233.488 237.709 231.976 241.17 231.952 241.16C231.952 241.16 231.691 242.897 234.487 244.107C237.283 245.315 238.742 243.819 238.742 243.819C238.741 243.755 240.26 240.062 240.26 240.062Z" fill="#CF9166"/>
<path d="M241.542 236.609L235.2 233.983C235.2 233.983 234.595 235.218 234.074 236.268C233.998 236.419 235.707 237.449 235.892 237.562C237.343 238.452 238.954 238.884 240.624 239.126C241.031 238 241.542 236.609 241.542 236.609Z" fill="#CF9166"/>
<path d="M258.152 218.448C252.587 218.448 247.924 215.607 245.113 211.376H229.783C229.5 212.299 229.243 213.304 229.019 214.418C227.334 222.811 229.534 233.732 237.999 237.236C246.464 240.74 256.402 235.015 259.675 227.107C260.869 224.223 261.057 221.163 260.417 218.268C259.668 218.385 258.911 218.448 258.152 218.448Z" fill="#3E150D"/>
<path d="M258.126 226.238C259.797 221.768 259.623 216.823 255.978 213.311C254.124 211.524 251.788 210.286 249.403 209.344C247.047 208.413 244.492 207.533 241.94 207.47C237.37 207.359 237.098 209.636 235.032 213.494C234.829 213.872 231.385 214.706 231.208 215.096C230.8 215.99 230.36 216.856 230.017 217.781C229.245 219.861 228.721 222.05 228.584 224.272C228.418 226.966 228.864 229.716 230.17 232.129C230.912 233.501 231.911 234.729 233.075 235.775C235 237.5 237.035 238.65 239.57 239.191C241.288 239.558 243.06 239.681 244.796 239.452C247.675 239.075 250.279 237.715 252.363 235.758C254.114 234.11 255.503 232.103 256.59 229.973C257.185 228.806 257.715 227.59 258.096 226.338C258.106 226.304 258.114 226.27 258.126 226.238Z" fill="#EDAC7C"/>
<path d="M246.809 225.232C246.243 226.463 246.7 227.884 247.832 228.403C248.964 228.923 250.341 228.345 250.91 227.113C251.477 225.881 251.019 224.462 249.887 223.942C248.754 223.422 247.377 223.999 246.809 225.232Z" fill="#CF9166"/>
<path d="M246.983 224.343C246.415 225.574 246.873 226.994 248.005 227.515C249.138 228.035 250.515 227.457 251.083 226.225C251.651 224.994 251.193 223.573 250.061 223.053C248.928 222.534 247.55 223.111 246.983 224.343Z" fill="black"/>
<path d="M247.965 224.062C247.759 224.508 247.962 225.039 248.415 225.246C248.87 225.455 249.404 225.264 249.61 224.817C249.815 224.371 249.613 223.841 249.159 223.632C248.705 223.423 248.171 223.615 247.965 224.062Z" fill="white"/>
<path d="M234.042 220.513C233.475 221.745 233.932 223.165 235.065 223.684C236.197 224.205 237.575 223.626 238.142 222.396C238.709 221.164 238.252 219.744 237.12 219.223C235.988 218.705 234.61 219.281 234.042 220.513Z" fill="#CF9166"/>
<path d="M234.282 219.991C233.714 221.223 234.173 222.643 235.305 223.163C236.438 223.683 237.815 223.105 238.382 221.873C238.95 220.642 238.492 219.221 237.36 218.702C236.229 218.182 234.849 218.76 234.282 219.991Z" fill="black"/>
<path d="M235.264 219.711C235.059 220.156 235.259 220.687 235.714 220.896C236.168 221.105 236.704 220.913 236.91 220.466C237.114 220.019 236.913 219.489 236.458 219.28C236.005 219.073 235.47 219.265 235.264 219.711Z" fill="white"/>
<path d="M242.126 220.822C242.126 220.822 241.385 225.65 240.029 225.214C237.4 224.373 236.602 230.143 240.963 228.552C242.609 227.952 243.452 221.044 243.452 221.044L242.126 220.822Z" fill="#F48470"/>
<path d="M233.7 217.911C233.7 217.911 233.782 217.843 233.946 217.753C234.029 217.71 234.131 217.653 234.252 217.607C234.372 217.554 234.511 217.507 234.667 217.461C234.822 217.416 234.993 217.377 235.175 217.346C235.358 217.318 235.554 217.29 235.758 217.286C235.96 217.271 236.17 217.281 236.384 217.294C236.599 217.304 236.813 217.348 237.029 217.377C237.239 217.425 237.452 217.475 237.657 217.535C237.858 217.603 238.055 217.676 238.242 217.751C238.426 217.837 238.6 217.926 238.764 218.011C238.928 218.099 239.069 218.202 239.203 218.289C239.334 218.38 239.456 218.462 239.553 218.552C239.651 218.637 239.735 218.715 239.804 218.778C239.939 218.904 240.011 218.985 240.011 218.985C240.011 218.985 239.904 218.959 239.728 218.901C239.64 218.873 239.533 218.84 239.414 218.798C239.298 218.752 239.161 218.714 239.013 218.667C238.866 218.624 238.714 218.562 238.546 218.516C238.378 218.469 238.205 218.418 238.027 218.362C237.845 218.315 237.659 218.272 237.471 218.218C237.281 218.177 237.089 218.136 236.896 218.095C236.798 218.078 236.701 218.062 236.605 218.046C236.508 218.03 236.413 218.008 236.317 217.999C236.221 217.989 236.125 217.975 236.032 217.962C235.937 217.946 235.845 217.945 235.752 217.934C235.567 217.912 235.388 217.905 235.217 217.893C235.131 217.885 235.049 217.89 234.968 217.885C234.886 217.883 234.808 217.877 234.732 217.879C234.581 217.878 234.44 217.877 234.317 217.881C234.19 217.882 234.082 217.89 233.989 217.892C233.901 217.9 233.826 217.899 233.778 217.906C233.727 217.91 233.7 217.911 233.7 217.911Z" fill="black"/>
<path d="M253.266 221.861C253.266 221.861 253.219 221.765 253.106 221.614C253.047 221.542 252.98 221.447 252.89 221.355C252.801 221.259 252.693 221.157 252.572 221.05C252.451 220.946 252.311 220.841 252.156 220.737C251.999 220.636 251.834 220.529 251.65 220.443C251.471 220.345 251.276 220.267 251.076 220.191C250.877 220.111 250.664 220.063 250.456 220.001C250.243 219.957 250.03 219.915 249.818 219.885C249.606 219.864 249.395 219.849 249.194 219.84C248.992 219.844 248.797 219.851 248.612 219.862C248.428 219.875 248.257 219.909 248.098 219.934C247.94 219.963 247.796 219.988 247.671 220.029C247.546 220.066 247.438 220.103 247.35 220.132C247.172 220.192 247.075 220.234 247.075 220.234C247.075 220.234 247.183 220.255 247.366 220.275C247.459 220.287 247.569 220.3 247.695 220.31C247.821 220.317 247.961 220.338 248.115 220.358C248.267 220.378 248.431 220.385 248.603 220.412C248.775 220.438 248.953 220.464 249.139 220.486C249.323 220.519 249.513 220.556 249.706 220.584C249.895 220.625 250.087 220.667 250.28 220.71C250.375 220.735 250.47 220.759 250.565 220.784C250.659 220.81 250.755 220.828 250.847 220.861C250.938 220.892 251.03 220.919 251.122 220.944C251.214 220.969 251.3 221.006 251.388 221.035C251.565 221.091 251.731 221.158 251.893 221.219C251.974 221.245 252.047 221.284 252.122 221.314C252.198 221.344 252.273 221.372 252.34 221.405C252.477 221.466 252.606 221.523 252.718 221.578C252.832 221.631 252.928 221.683 253.01 221.723C253.089 221.767 253.157 221.798 253.198 221.823C253.243 221.847 253.266 221.861 253.266 221.861Z" fill="black"/>
<path d="M258.296 226.473C258.296 226.473 259.219 224.861 260.116 222.651C259.173 224.887 258.296 226.473 258.296 226.473Z" fill="#CF9166"/>
<path d="M259.531 210.669C258.62 210.76 257.673 210.739 256.762 210.758C254.574 210.806 252.385 210.742 250.197 210.782C248.895 210.806 247.595 210.863 246.297 210.965C246.186 210.973 243.173 211.281 243.267 211.243C241.022 211.549 238.786 211.94 236.549 212.283C235.682 212.416 234.829 212.489 233.986 212.528C236.518 213.063 239.797 212.908 242.083 212.685C241.96 212.723 241.851 212.752 241.718 212.798C239.355 213.6 241.308 216.229 245.453 217.997C251.19 220.442 256.389 219.473 256.389 219.473C256.389 219.473 255.461 221.156 255.26 224.12C255.123 226.15 255.625 228.635 255.955 230.001C256.108 230.63 256.224 231.022 256.224 231.022L255.469 232.378C255.469 232.378 257.137 229.559 260.112 225.89C266.311 218.244 265.658 213.807 264.462 211.65C262.781 211.562 261.111 211.245 259.531 210.669Z" fill="#361710"/>
<path d="M259.128 220.396C259.128 220.396 246.793 220.928 226.202 212.74C216.35 208.822 232.467 208.543 232.467 208.543L251.532 208.107L259.128 220.396Z" fill="#2D2C44"/>
<path d="M261.648 223.992C261.648 223.992 260.927 222.471 259.129 220.397C257.059 218.008 253.565 214.884 248.11 212.507C237.922 208.067 232.467 208.544 232.467 208.544C232.467 208.544 233.296 202.561 241.183 199.583C244.247 198.425 247.403 198.115 250.419 198.607C255.483 199.431 260.157 202.509 263.36 207.624C268.446 215.746 261.648 223.992 261.648 223.992Z" fill="#2D2C44"/>
<path d="M259.129 220.396C257.06 218.007 253.565 214.884 248.111 212.507C237.922 208.066 232.467 208.544 232.467 208.544C232.467 208.544 233.296 202.561 241.183 199.582C244.247 198.425 247.403 198.115 250.42 198.607C253.029 199.739 255.497 201.503 257.662 203.891C263.461 210.285 260.087 218.422 259.129 220.396Z" fill="#A7A6BB"/>
<path d="M257.324 229.13C257.324 229.13 248.874 232.461 245.416 235.006C244.507 235.676 244.021 237.944 241.054 237.944C237.38 237.944 237.959 236.19 235.551 234.528C234.204 233.598 231.347 232.655 230.537 231.487C228.755 228.92 228.769 220.664 228.769 220.664C228.769 220.664 226.319 227.066 228.185 233.141C228.987 235.751 230.005 242.539 239.067 242.874C247.639 243.191 248.976 240.553 250.648 238.83C252.32 237.108 257.324 229.13 257.324 229.13Z" fill="#361710"/>
<path d="M199.249 223.271L202.662 224.969C206.287 226.771 207.764 231.172 205.962 234.797L204.221 238.297C202.418 241.922 198.018 243.4 194.393 241.597L190.98 239.899C187.355 238.097 185.878 233.697 187.68 230.072L189.421 226.571C191.224 222.946 195.624 221.469 199.249 223.271Z" fill="#FCC822"/>
<path d="M207.646 245.83L206.461 243.223C206.166 242.349 206.056 241.424 206.138 240.505L206.666 234.639C206.735 233.874 206.498 233.111 206.005 232.52L201.281 226.844C200.98 226.481 200.411 226.525 200.169 226.929C200.025 227.17 200.042 227.473 200.212 227.696L202.402 230.567L200.371 228.954C199.978 228.642 199.394 228.807 199.223 229.279C199.121 229.56 199.199 229.876 199.422 230.075L202.592 232.938L199.599 230.994C199.186 230.726 198.631 230.912 198.463 231.375C198.336 231.723 198.477 232.11 198.797 232.298L201.547 233.9L198.615 232.921C198.261 232.803 197.877 232.988 197.75 233.339C197.633 233.661 197.771 234.02 198.073 234.181L199.76 235.08C200.879 235.678 201.483 236.933 201.249 238.18L200.7 241.108C200.389 242.767 200.723 244.483 201.633 245.905L203.12 248.227L207.646 245.83Z" fill="#EDAC7C"/>
<path d="M244.77 250.285L224.49 261.144C223.144 261.866 221.47 261.43 220.645 260.146L208.789 241.869L199.964 246.677L217.041 274.606C218.271 276.429 220.674 277.04 222.626 276.025L250.656 261.431C253.432 259.985 254.726 256.72 253.695 253.765C252.42 250.11 248.182 248.458 244.77 250.285Z" fill="#A7A6BB"/>
<path d="M232.799 286.431C232.799 297.478 223.844 306.437 212.792 306.437L193.448 304.71L179.628 303.475V300.25C179.628 292.617 185.815 286.431 193.448 286.431H232.799Z" fill="#2D2C44"/>
<path d="M193.05 286.432V340.113L180.927 337.605L179.38 300.251C179.38 292.618 185.238 286.432 193.05 286.432Z" fill="#2D2C44"/>
<path d="M172.345 330.482C166.722 330.612 162.203 335.208 162.203 340.863C162.203 341.391 162.631 341.819 163.159 341.819H172.345V330.482Z" fill="white"/>
<path d="M179.715 320.963V329.52C179.715 330.047 179.287 330.476 178.76 330.476H172.589C172.271 330.476 171.958 330.49 171.647 330.518V338.848H193.547V320.963H179.715Z" fill="#361710"/>
<path d="M189.439 327.58C189.439 329.183 188.139 330.482 186.537 330.482C184.934 330.482 183.634 329.183 183.634 327.58C183.634 325.977 184.934 324.678 186.537 324.678C188.139 324.678 189.439 325.977 189.439 327.58Z" fill="white"/>
<path d="M162.813 337.35C162.419 338.447 162.202 339.629 162.202 340.862C162.202 341.39 162.63 341.817 163.158 341.817H192.591C193.119 341.817 193.547 341.39 193.547 340.862V337.35H162.813Z" fill="white"/>
<path d="M252.289 130.883C261.156 135.292 266.285 141.81 267.674 150.432C268.795 157.25 267.674 164.041 264.308 170.809C258.679 182.127 248.2 190.343 232.871 195.455C227.526 197.236 223.563 200.432 220.979 205.041C220.078 206.559 219.149 208.279 218.192 210.205C216.389 213.83 211.989 215.307 208.364 213.504L204.95 211.807C201.326 210.005 199.848 205.604 201.65 201.98C206.786 191.652 213.139 185.243 220.711 182.749C228.893 180.05 235.426 176.35 240.313 171.647C243.133 168.901 245.458 165.692 247.286 162.016C249.172 158.223 249.805 154.828 249.187 151.827C248.565 148.39 246.362 146.02 242.571 144.716C239.043 143.472 235.503 144.586 231.957 148.061C231.78 148.228 231.604 148.4 231.43 148.578C228.88 151.167 224.807 151.476 221.882 149.319L219.016 147.205C215.467 144.587 215.006 139.438 218.048 136.245C221.07 133.072 224.541 130.647 228.462 128.967C232.711 127.151 237.578 126.733 243.059 127.712C245.944 128.201 249.021 129.257 252.289 130.883Z" fill="#FCC822"/>
<path d="M238.086 235.346C238.325 235.346 238.531 235.183 238.591 234.952C238.829 234.029 239.662 233.345 240.659 233.345C241.658 233.345 242.489 234.029 242.728 234.952C242.787 235.183 242.994 235.346 243.233 235.346C243.568 235.346 243.833 235.032 243.751 234.706C243.402 233.32 242.155 232.292 240.659 232.292C239.164 232.292 237.917 233.32 237.568 234.706C237.486 235.032 237.75 235.346 238.086 235.346Z" fill="#F05B4E"/>
<path d="M247.373 234.421C246.885 232.105 245.246 230.192 243.048 229.355C242.635 229.198 242.166 229.272 241.838 229.568C241.474 229.895 241.078 230.246 240.659 230.246C240.22 230.246 239.804 229.877 239.425 229.534C239.103 229.243 238.644 229.161 238.234 229.309C236.254 230.02 234.677 231.609 233.994 233.635C233.783 234.262 234.09 234.988 234.724 235.178C235.345 235.364 235.958 235.016 236.145 234.434C236.779 232.456 238.674 231.074 240.845 231.2C243.016 231.325 244.739 232.916 245.142 234.953C245.243 235.465 245.672 235.843 246.192 235.874H246.192C246.956 235.874 247.53 235.168 247.373 234.421Z" fill="#361710"/>
<path d="M203.161 286.517C203.161 286.517 217.662 286.904 223.976 292.261C230.289 297.618 231.725 297.714 231.725 297.714C231.725 297.714 232.641 286.933 236.058 279.934C239.476 272.935 235.169 274.85 234.308 275.902C233.447 276.954 222.637 286.035 222.637 286.035L220.498 286.431L203.161 286.517Z" fill="#727293"/>
<path d="M289.145 180.476C289.145 180.476 288.19 184.14 289.762 184.976C291.336 185.812 295.357 186.251 295.397 184.976C295.437 183.701 296.552 182.467 294.561 181.591C292.57 180.715 290.22 180.476 290.22 180.476H289.145Z" fill="#C9BDBD"/>
<path d="M327.64 137.521C327.599 137.529 327.558 137.537 327.517 137.546C327.193 137.616 327.002 137.682 327.002 137.682V137.697C326.926 137.724 326.847 137.749 326.772 137.782C322.585 139.654 322.585 143.485 322.585 143.485L325.169 151.148C325.169 151.148 325.891 151.183 326.973 151.084L326.898 185.787L327.273 186.002C330.078 187.612 333.525 187.619 336.335 186.018L336.743 185.787C336.743 185.787 337.245 171.846 337.431 152.897C337.589 136.768 329.925 137.073 327.64 137.521Z" fill="#161616"/>
<path d="M321.542 142.992L323.09 140.951C323.286 140.692 323.649 140.631 323.916 140.815C325.607 141.977 331.119 146.194 330.367 151.272L321.542 142.992Z" fill="white"/>
<path d="M315.044 175.349C315.047 175.329 316.626 175.151 316.721 175.134C318.102 174.88 319.458 174.465 320.744 173.903C324.721 172.164 327.778 168.956 329.291 164.88C330.376 161.952 330.681 158.785 330.563 155.681C330.39 151.13 329.339 146.156 325.331 143.374C321.917 141.006 320.245 141.725 320.245 141.725C320.245 141.725 315.045 175.337 315.044 175.349Z" fill="#161616"/>
<path d="M315.973 169.518L309.02 169.076C309.02 169.076 308.063 179.947 308.037 179.945C308.037 179.945 308.41 182.149 311.492 182.393C314.574 182.635 315.479 180.416 315.479 180.416C315.457 180.354 315.973 169.518 315.973 169.518Z" fill="#F8D0B7"/>
<path d="M311.741 177.94C309.459 177.76 308.631 176.961 308.355 176.559C308.643 173.368 309.02 169.077 309.02 169.077L315.973 169.518C315.973 169.518 315.775 173.67 315.63 176.849C315.441 177.096 314.468 178.155 311.741 177.94Z" fill="#EFBDAC"/>
<path d="M312.999 172.994L306.046 172.552C306.046 172.552 305.87 173.938 305.715 175.115C305.692 175.286 307.67 175.715 307.885 175.763C309.57 176.14 311.26 176.028 312.943 175.711C312.965 174.497 312.999 172.994 312.999 172.994Z" fill="#CF9166"/>
<path d="M297.648 153.088C297.843 151.69 297.991 150.506 299.115 149.185C301.863 145.958 306.249 144.116 310.459 144.123C316.793 144.134 323.36 146.561 325.053 153.187C325.633 155.456 325.647 157.835 325.423 160.167C325.07 163.844 324.085 167.56 321.866 170.514C319.207 174.053 314.814 176.222 310.388 176.181C303.629 176.118 298.219 172.486 296.401 166.59C295.092 162.346 296.314 159.021 297.325 154.894C297.484 154.243 297.57 153.648 297.648 153.088Z" fill="#F8D0B7"/>
<path d="M327.779 160.935C327.795 160.955 327.814 160.983 327.814 160.983C327.814 160.983 327.811 160.953 327.804 160.899C327.795 160.846 327.784 160.764 327.75 160.663C327.715 160.564 327.668 160.439 327.575 160.307C327.483 160.175 327.353 160.025 327.146 159.901C327.044 159.838 326.924 159.783 326.792 159.736C326.726 159.715 326.656 159.695 326.583 159.681L326.528 159.67L326.467 159.661L326.373 159.647C326.315 159.636 326.236 159.63 326.155 159.627C326.073 159.621 325.994 159.619 325.919 159.623C325.841 159.623 325.763 159.626 325.684 159.635C325.606 159.643 325.527 159.65 325.45 159.665C325.36 159.68 325.273 159.705 325.185 159.727C325.192 159.133 325.172 158.538 325.113 157.949C325.883 157.84 326.746 157.915 327.702 158.316C331.73 160.008 329.736 167.732 323.379 168.053C323.543 167.712 323.691 167.365 323.829 167.014C327.234 166.027 328.487 162.673 327.779 160.935Z" fill="#F8D0B7"/>
<path d="M325.804 160.154C325.861 160.142 325.918 160.135 325.975 160.128C326.033 160.118 326.087 160.113 326.137 160.111C326.187 160.107 326.239 160.103 326.308 160.106L326.404 160.107L326.428 160.108H326.439H326.446C326.44 160.107 326.462 160.109 326.434 160.106H326.436L326.473 160.109C326.524 160.111 326.572 160.119 326.62 160.125C326.715 160.14 326.807 160.162 326.891 160.194C327.232 160.324 327.463 160.551 327.603 160.712C327.672 160.794 327.727 160.86 327.761 160.909C327.772 160.926 327.772 160.923 327.779 160.934C328.488 162.672 327.234 166.026 323.829 167.013C324.479 165.36 324.862 163.61 325.053 161.869C325.108 161.369 325.147 160.868 325.17 160.365C325.323 160.3 325.476 160.231 325.633 160.192C325.689 160.175 325.747 160.165 325.804 160.154Z" fill="#FFB7A1"/>
<path d="M325.685 159.635C325.763 159.625 325.841 159.623 325.919 159.622C325.994 159.619 326.073 159.62 326.155 159.626C326.237 159.63 326.315 159.636 326.373 159.647L326.467 159.661L326.528 159.67L326.583 159.681C326.655 159.695 326.726 159.715 326.792 159.736C326.925 159.782 327.044 159.838 327.146 159.901C327.352 160.025 327.483 160.174 327.575 160.307C327.669 160.439 327.715 160.563 327.749 160.663C327.783 160.764 327.796 160.846 327.804 160.899C327.81 160.953 327.813 160.982 327.813 160.982C327.813 160.982 327.794 160.955 327.779 160.935C327.771 160.924 327.772 160.926 327.76 160.909C327.727 160.86 327.672 160.795 327.603 160.713C327.462 160.552 327.232 160.325 326.891 160.195C326.807 160.163 326.714 160.14 326.62 160.125C326.571 160.12 326.524 160.112 326.474 160.11L326.436 160.106H326.434C326.461 160.11 326.439 160.107 326.445 160.108H326.439H326.427L326.404 160.107L326.308 160.106C326.238 160.103 326.186 160.107 326.137 160.111C326.086 160.113 326.033 160.118 325.974 160.128C325.917 160.135 325.86 160.142 325.803 160.154C325.747 160.165 325.689 160.175 325.633 160.192C325.476 160.232 325.323 160.301 325.169 160.366C325.179 160.154 325.183 159.941 325.185 159.727C325.274 159.705 325.36 159.68 325.449 159.665C325.527 159.65 325.607 159.643 325.685 159.635Z" fill="#FFA792"/>
<path d="M307.422 159.918C307.422 159.918 307.598 162.958 306.189 162.632C303.459 162.005 303.141 167.909 307.416 165.93C309.03 165.184 308.782 160.031 308.782 160.031L307.422 159.918Z" fill="#F48470"/>
<path d="M302.71 167.982C302.63 169.249 301.521 170.209 300.233 170.127C298.945 170.045 297.965 168.953 298.044 167.687C298.126 166.42 299.235 165.46 300.523 165.542C301.811 165.624 302.791 166.716 302.71 167.982Z" fill="#FFB7A1"/>
<path d="M319.534 167.567C319.453 168.835 318.344 169.794 317.054 169.712C315.768 169.631 314.789 168.54 314.867 167.273C314.949 166.007 316.057 165.047 317.345 165.128C318.633 165.209 319.614 166.303 319.534 167.567Z" fill="#FFB7A1"/>
<path d="M298.561 158.071C298.561 158.071 298.627 157.985 298.77 157.859C298.841 157.798 298.93 157.719 299.039 157.646C299.146 157.568 299.273 157.489 299.417 157.409C299.56 157.329 299.721 157.251 299.894 157.181C300.07 157.112 300.256 157.04 300.458 156.99C300.655 156.931 300.865 156.893 301.079 156.859C301.294 156.82 301.516 156.816 301.736 156.796C301.955 156.797 302.177 156.798 302.393 156.811C302.608 156.834 302.819 156.862 303.021 156.893C303.222 156.938 303.415 156.987 303.595 157.034C303.778 157.085 303.941 157.155 304.093 157.212C304.244 157.273 304.382 157.325 304.498 157.393C304.615 157.455 304.716 157.514 304.798 157.561C304.96 157.656 305.049 157.719 305.049 157.719C305.049 157.719 304.936 157.717 304.75 157.7C304.657 157.692 304.544 157.683 304.415 157.667C304.291 157.648 304.145 157.641 303.989 157.629C303.834 157.619 303.669 157.592 303.494 157.583C303.317 157.574 303.134 157.564 302.945 157.547C302.754 157.541 302.561 157.541 302.362 157.53C302.165 157.532 301.966 157.534 301.766 157.537C301.665 157.541 301.565 157.548 301.467 157.553C301.367 157.559 301.268 157.558 301.171 157.572C301.073 157.582 300.976 157.591 300.88 157.599C300.783 157.603 300.691 157.624 300.597 157.634C300.41 157.654 300.231 157.686 300.058 157.712C299.971 157.724 299.89 157.747 299.81 157.76C299.728 157.776 299.649 157.788 299.575 157.808C299.426 157.84 299.286 157.871 299.165 157.903C299.039 157.931 298.933 157.964 298.842 157.987C298.757 158.015 298.683 158.031 298.637 158.048C298.587 158.063 298.561 158.071 298.561 158.071Z" fill="#161616"/>
<path d="M317.021 157.061C317.021 157.061 316.952 156.977 316.806 156.855C316.731 156.797 316.642 156.72 316.531 156.65C316.42 156.576 316.29 156.501 316.146 156.425C316 156.351 315.837 156.279 315.659 156.214C315.481 156.152 315.292 156.085 315.09 156.043C314.892 155.988 314.68 155.958 314.465 155.93C314.249 155.899 314.028 155.902 313.808 155.889C313.586 155.896 313.367 155.906 313.151 155.927C312.936 155.955 312.726 155.99 312.524 156.029C312.325 156.08 312.135 156.135 311.955 156.188C311.777 156.244 311.616 156.32 311.465 156.381C311.315 156.447 311.179 156.506 311.066 156.575C310.951 156.641 310.852 156.704 310.773 156.753C310.612 156.854 310.526 156.919 310.526 156.919C310.526 156.919 310.637 156.915 310.824 156.891C310.917 156.881 311.03 156.868 311.157 156.848C311.282 156.824 311.425 156.813 311.581 156.794C311.736 156.78 311.9 156.749 312.077 156.733C312.253 156.719 312.435 156.702 312.623 156.679C312.812 156.669 313.008 156.66 313.206 156.643C313.402 156.638 313.601 156.635 313.802 156.629C313.901 156.632 314.001 156.634 314.101 156.636C314.199 156.639 314.298 156.636 314.397 156.647C314.494 156.655 314.592 156.66 314.688 156.663C314.785 156.666 314.879 156.683 314.972 156.69C315.161 156.703 315.34 156.73 315.514 156.752C315.601 156.758 315.682 156.78 315.763 156.79C315.845 156.803 315.925 156.814 315.999 156.829C316.149 156.858 316.29 156.883 316.413 156.912C316.539 156.936 316.646 156.965 316.735 156.985C316.824 157.011 316.898 157.024 316.946 157.04C316.995 157.052 317.021 157.061 317.021 157.061Z" fill="#050607"/>
<path d="M312.599 160.04C312.364 160.909 312.88 161.789 313.75 162.006C314.619 162.224 315.514 161.697 315.747 160.827C315.982 159.959 315.467 159.078 314.597 158.86C313.728 158.644 312.833 159.171 312.599 160.04Z" fill="#050607"/>
<path d="M313.254 159.75C313.17 160.064 313.383 160.39 313.732 160.476C314.081 160.565 314.432 160.38 314.517 160.065C314.602 159.751 314.387 159.425 314.039 159.339C313.691 159.25 313.339 159.435 313.254 159.75Z" fill="white"/>
<path d="M303.357 159.662C303.592 160.53 303.076 161.411 302.207 161.629C301.337 161.846 300.443 161.319 300.209 160.45C299.974 159.581 300.489 158.7 301.359 158.483C302.229 158.266 303.123 158.794 303.357 159.662Z" fill="#050607"/>
<path d="M302.702 159.372C302.787 159.686 302.573 160.012 302.224 160.099C301.875 160.187 301.524 160.003 301.44 159.687C301.354 159.373 301.569 159.047 301.917 158.961C302.266 158.872 302.618 159.057 302.702 159.372Z" fill="white"/>
<path d="M318.43 152.599C318.43 152.599 323.882 169.288 318.893 174.278C318.893 174.278 326.14 170.306 326.8 152.093L318.43 152.599Z" fill="#161616"/>
<path d="M325.78 156.077C327.653 155.776 327.784 147.789 327.499 146.701C326.523 142.957 321.178 140.657 317.915 139.433C312.775 137.507 306.314 137.19 301.665 140.529C299.174 142.319 297.951 144.838 296.789 147.584C296.574 148.09 294.253 154.473 294.239 154.473C294.24 154.473 311.938 155.374 311.799 155.367L313.471 155.452C313.471 155.452 324.463 156.288 325.78 156.077" fill="#161616"/>
<path d="M339.687 205.73H339.572C338.219 205.737 336.902 206.212 335.735 206.909C336.975 208.533 338.368 210.03 340.159 211.07C340.277 211.139 340.391 211.199 340.502 211.254C340.733 210.988 340.949 210.71 341.14 210.413C342.383 208.489 342.56 205.775 339.687 205.73Z" fill="#E8B79E"/>
<path d="M300.462 255.005C300.462 255.005 301.349 282.241 301.408 284.777C301.467 287.313 304.993 310.012 305.419 315.574C305.847 321.136 304.319 332.564 303.082 337.12L301.579 340.985C301.579 340.985 306.399 342.913 308.272 342.074C311.219 340.752 311.81 336.069 312.553 333.314C313.339 330.392 313.922 327.366 313.797 324.327C313.677 321.405 312.071 319.187 311.46 316.401C309.793 308.814 312.631 300.964 313.036 293.374C313.397 286.601 312.487 279.845 311.473 273.164C310.528 266.934 313.412 261.416 313.114 255.253C313.114 255.253 301.622 247.067 300.333 253.715" fill="#EFC8B1"/>
<path d="M302.55 338.484C302.476 338.819 303.46 339.175 303.683 339.275C305.306 340.011 307.881 340.721 309.218 339.073C310.85 337.067 311.225 333.587 311.917 331.164C312.699 328.423 313.514 325.27 313.272 322.39L313.157 321.033C313.157 321.033 316.976 323.366 316.736 326.605C316.495 329.845 313.237 335.276 313.034 338.664C312.908 340.752 311.893 342.828 310.188 344.068C307.581 345.963 303.08 345.828 300.293 344.399C299.263 343.87 298.45 341.414 299.8 340.793C301.483 340.02 304.205 332.11 303.921 331.843L303.081 337.119C303.081 337.119 302.55 338.481 302.55 338.484Z" fill="#122738"/>
<path d="M316.555 327.406C316.555 327.406 315.473 334.379 315.994 338.28L314.858 338.655L313.726 333.423L316.555 327.406Z" fill="#312E2F"/>
<path d="M326.307 327.406C326.307 327.406 325.392 337.844 325.914 341.747L324.254 341.793L323.477 333.423L326.307 327.406Z" fill="#0C1B26"/>
<path d="M309.099 255.005C309.099 255.005 311.101 282.241 311.16 284.777C311.218 287.313 314.744 310.012 315.171 315.574C315.598 321.136 314.071 332.564 312.833 337.12L311.331 340.985C311.331 340.985 316.151 342.913 318.024 342.074C320.97 340.752 321.562 336.069 322.304 333.314C323.091 330.392 323.674 327.366 323.549 324.327C323.429 321.405 321.823 319.187 321.21 316.401C319.545 308.814 322.382 300.964 322.787 293.374C323.149 286.601 322.238 279.845 321.225 273.164C320.279 266.934 323.163 261.416 322.865 255.253C322.865 255.253 310.259 247.067 308.97 253.715" fill="#F8D0B7"/>
<path d="M312.302 338.484C312.228 338.819 313.212 339.175 313.435 339.275C315.058 340.011 317.632 340.721 318.969 339.073C320.603 337.067 320.977 333.587 321.668 331.164C322.451 328.423 323.266 325.27 323.023 322.39L322.909 321.033C322.909 321.033 326.727 323.366 326.487 326.605C326.247 329.845 322.989 335.276 322.786 338.664C322.66 340.752 321.645 342.828 319.939 344.068C317.333 345.963 312.832 345.828 310.045 344.399C309.014 343.87 308.202 341.414 309.552 340.793C311.235 340.02 313.957 332.11 313.673 331.843L312.833 337.119C312.833 337.119 312.303 338.481 312.302 338.484Z" fill="#122738"/>
<path d="M321.84 196.485C322.788 192.008 326.103 187.43 326.306 186.425C321.08 181.204 316.416 179.35 315.318 179.008L308.821 179.037C307.082 179.744 305.33 180.415 303.586 181.108C302.93 181.367 302.318 181.504 301.905 182.074C301.399 182.773 301.141 183.969 300.807 184.779C299.894 186.992 298.955 189.239 298.505 191.61C298.214 193.142 298.576 194.791 299.196 196.485H321.84Z" fill="#F8D0B7"/>
<path d="M328.348 230.691C326.285 224.788 323.501 219.088 322.461 212.879C318.844 214.412 305.093 213.944 302.412 211.573C301.825 219.287 297.869 226.662 295.99 234.173C294.816 238.867 293.836 243.64 293.659 248.488C293.477 253.56 295.304 268.953 295.676 274.619C310.57 284.256 327.496 275.013 328.171 273.265C331.711 264.102 331.538 250.395 330.662 240.524C330.361 237.113 329.459 233.873 328.348 230.691Z" fill="#122738"/>
<path d="M295.99 234.173C295.912 234.483 295.838 234.796 295.762 235.107C301.055 237.94 321.684 239.644 329.477 234.261C329.143 233.06 328.76 231.871 328.348 230.691C326.366 225.021 323.724 219.535 322.596 213.609L319.442 213.537C316.183 213.914 311.486 213.821 307.779 213.273L303.45 213.174C303.45 213.174 301.89 224.995 296.867 231.094C296.546 232.119 296.247 233.145 295.99 234.173Z" fill="#0B1C28"/>
<path d="M308.344 190.292C308.331 190.069 308.304 189.853 308.274 189.635C308.269 189.599 308.263 189.564 308.257 189.527C307.876 186.975 306.416 184.84 304.54 183.417C302.184 181.712 299.674 180.244 297.204 178.717C292.244 175.707 287.991 173.284 282.974 170.369C281.419 167.498 279.839 164.646 278.195 161.839C277.365 160.436 276.535 159.034 275.601 157.703C274.55 156.477 273.784 155.057 273.034 153.595C271.519 150.701 270.214 147.614 268.129 145.116C266.99 143.806 265.751 142.613 264.454 141.489C264.571 141.692 268.497 148.538 268.094 155.398C268.094 155.398 268.086 155.4 268.081 155.402C268.552 155.679 269.019 155.971 269.491 156.247L269.999 156.555L270.253 156.709C270.348 156.758 270.428 156.816 270.426 156.868C270.557 157.142 270.688 157.606 270.804 157.991C271.272 159.615 271.754 161.244 272.325 162.828C273.462 165.989 274.887 169.035 276.861 171.637C277.847 172.928 278.955 174.139 280.22 175.126C281.463 176.131 282.724 177.111 283.995 178.078C286.538 180.009 288.385 181.352 291.046 183.115C293.71 184.874 296.431 186.553 299.269 188.033C302.136 189.457 305.068 190.798 308.359 191.298C308.362 191.241 308.355 191.186 308.356 191.128C308.366 190.969 308.371 190.68 308.344 190.292Z" fill="#EFC8B1"/>
<path d="M266.25 145.139C266.161 146.127 265.61 148.649 265.237 149.546C264.528 149.44 263.833 149.147 263.218 148.776C262.534 148.388 262.008 147.813 261.35 147.306C261.018 147.065 260.659 146.853 260.253 146.713C259.844 146.605 259.381 146.472 258.841 146.817C258.778 146.866 258.69 146.939 258.65 147.079C258.597 147.226 258.638 147.27 258.638 147.367C258.674 147.498 258.723 147.607 258.777 147.704C258.886 147.896 259.006 148.069 259.133 148.231C259.387 148.559 259.659 148.86 259.937 149.154C261.027 150.341 262.256 151.387 263.385 152.503L264.218 153.373C264.518 153.671 264.869 153.899 265.233 154.09C265.962 154.473 266.743 154.707 267.45 155.042C267.703 155.171 267.95 155.321 268.198 155.47V147.909C267.234 147.623 267.099 145.629 266.25 145.139Z" fill="#EFC8B1"/>
<path d="M291.071 175.068C291.071 175.068 292.391 177.211 291.973 181.511C291.555 185.812 289.762 184.976 289.762 184.976C289.762 184.976 294.243 188.38 298.722 190.77C303.203 193.16 303.023 181.75 303.023 181.75C303.023 181.75 291.543 173.643 291.071 175.068Z" fill="white"/>
<path d="M302.324 212.868C302.308 213.174 302.172 213.56 302.388 213.709C309.271 218.442 322.616 213.504 322.521 212.918C322.058 210.095 321.983 207.179 322.525 204.36C323.746 198.013 328.43 191.862 326.38 185.183C326.373 185.16 326.366 185.136 326.357 185.112C325.667 183.055 318.869 180.669 318.277 180.286C318.477 180.808 317.928 181.411 317.74 181.647C316.813 182.799 315.356 183.519 313.964 183.928C312.348 184.403 310.653 184.595 308.972 184.53C308.029 184.493 307.082 184.372 306.157 184.183C305.59 184.068 304.889 183.887 304.511 183.42C303.815 182.563 304.473 181.316 304.902 180.486C304.902 180.486 304.08 180.794 303.024 180.815C301.715 180.839 297.708 178.182 297.708 178.182C296.97 180.453 298.099 189.491 297.221 191.691C296.668 193.076 296.379 194.601 296.649 196.068C297.086 198.438 298.861 200.241 299.621 202.487C300.585 205.338 302.488 209.763 302.324 212.868Z" fill="white"/>
<path d="M302.068 210.148C302.068 210.148 300.138 224.8 293.647 229.897C288.787 233.712 319.217 238.047 328.482 230.957C328.876 230.654 328.934 230.079 328.612 229.7C328.101 229.099 327.315 227.852 326.305 225.266C324.428 220.458 322.236 210.605 322.236 210.605L302.068 210.148Z" fill="white"/>
<path d="M342.886 211.115C342.392 211.734 341.538 211.871 340.16 211.07C338.296 209.987 336.862 208.414 335.585 206.714C333.956 204.547 332.019 202.624 330.165 200.638C327.663 197.957 325.038 195.323 322.741 192.461C320.865 190.125 319.369 188.35 320.245 185.089C320.379 184.592 320.572 184.097 320.913 183.707C321.429 183.114 322.249 182.961 322.996 183.05C324.861 183.274 326.108 184.586 327.277 185.892C328.496 187.252 329.85 188.504 331.126 189.812C333.852 192.606 336.516 195.484 338.763 198.68C340.229 200.765 341.79 202.827 342.806 205.183C343.837 207.578 343.894 209.853 342.886 211.115Z" fill="#EFC8B1"/>
<path d="M339.687 205.73H339.572C338.219 205.737 336.902 206.212 335.735 206.909C336.975 208.533 338.368 210.03 340.159 211.07C340.277 211.139 340.391 211.199 340.502 211.254C340.733 210.988 340.949 210.71 341.14 210.413C342.383 208.489 342.56 205.775 339.687 205.73Z" fill="#E8B79E"/>
<path d="M340.97 206.335C340.932 206.34 340.894 206.346 340.856 206.351C339.351 206.579 337.976 207.386 336.842 208.406C334.431 210.573 332.447 213.42 330.288 215.849C328.606 217.74 326.924 219.836 325.065 221.671C325.181 221.795 325.28 221.934 325.354 222.096C326.08 223.703 326.351 224.701 327.351 226.155C329.161 222.903 336.738 218.194 340.952 213.7C341.785 212.811 342.582 211.865 343.087 210.757C344.038 208.674 343.819 205.962 340.97 206.335Z" fill="#EFC8B1"/>
<path d="M324.959 224.296C324.955 224.301 322.908 226.666 322.513 226.626C322.118 226.587 321.598 226.08 321.598 226.08L324.284 222.584C324.284 222.584 321.451 225.267 320.763 225.312C320.074 225.358 319.56 224.794 319.56 224.794L323.187 220.993C323.187 220.993 320.796 223.834 319.973 224.093C319.148 224.354 318.516 223.834 318.516 223.834L322.019 219.566L321.895 220.238C321.895 220.238 320.169 221.548 319.497 221.424C318.825 221.3 318.294 220.905 318.294 220.905C318.294 220.905 320.134 219.606 321.082 218.674C322.029 217.743 322.983 217.895 322.983 217.895C324.68 219.298 325.733 221.439 326.816 223.345C327.653 224.818 327.676 227.641 327.676 227.641C327.676 227.641 327.149 228.593 324.959 224.296Z" fill="#F8D0B7"/>
<path d="M299.243 152.431C299.243 152.431 296.232 158.224 296.401 166.59C296.401 166.59 290.767 159.219 298.12 148.688L299.243 152.431Z" fill="#161616"/>
<path d="M328.793 200.905C328.793 200.905 335.496 199.95 336.853 194.931C336.853 194.931 327.149 183.79 322.961 182.411C318.773 181.033 316.941 185.852 318.933 189.237C320.924 192.622 328.793 200.905 328.793 200.905Z" fill="white"/>
<path d="M297.306 191.432C297.306 191.432 297.597 189.976 298.761 188.364C299.926 186.751 297.59 187.746 295.329 188.793C295.329 188.793 297.322 189.904 297.319 190.621C297.317 191.024 297.306 191.432 297.306 191.432Z" fill="#E1E4E5"/>
<path d="M307.762 170.068C308.001 170.068 308.207 169.905 308.268 169.674C308.506 168.75 309.337 168.068 310.336 168.068C311.334 168.068 312.166 168.75 312.404 169.674C312.464 169.905 312.671 170.068 312.91 170.068C313.245 170.068 313.51 169.754 313.428 169.428C313.079 168.042 311.832 167.014 310.336 167.014C308.841 167.014 307.593 168.042 307.244 169.428C307.162 169.754 307.426 170.068 307.762 170.068Z" fill="#F05B4E"/>
<defs>
<filter id="filter0_d_2_773" x="177.594" y="111.159" width="39.9677" height="39.9674" filterUnits="userSpaceOnUse" color-interpolation-filters="sRGB">
<feFlood flood-opacity="0" result="BackgroundImageFix"/>
<feColorMatrix in="SourceAlpha" type="matrix" values="0 0 0 0 0 0 0 0 0 0 0 0 0 0 0 0 0 0 127 0" result="hardAlpha"/>
<feMorphology radius="6.96683" operator="erode" in="SourceAlpha" result="effect1_dropShadow_2_773"/>
<feOffset dy="10.4502"/>
<feGaussianBlur stdDeviation="11.6114"/>
<feColorMatrix type="matrix" values="0 0 0 0 0.243137 0 0 0 0 0.741176 0 0 0 0 1 0 0 0 0.45 0"/>
<feBlend mode="normal" in2="BackgroundImageFix" result="effect1_dropShadow_2_773"/>
<feBlend mode="normal" in="SourceGraphic" in2="effect1_dropShadow_2_773" result="shape"/>
</filter>
<filter id="filter1_d_2_773" x="379.397" y="207.09" width="39.9677" height="39.9674" filterUnits="userSpaceOnUse" color-interpolation-filters="sRGB">
<feFlood flood-opacity="0" result="BackgroundImageFix"/>
<feColorMatrix in="SourceAlpha" type="matrix" values="0 0 0 0 0 0 0 0 0 0 0 0 0 0 0 0 0 0 127 0" result="hardAlpha"/>
<feMorphology radius="6.96683" operator="erode" in="SourceAlpha" result="effect1_dropShadow_2_773"/>
<feOffset dy="10.4502"/>
<feGaussianBlur stdDeviation="11.6114"/>
<feColorMatrix type="matrix" values="0 0 0 0 0.243137 0 0 0 0 0.741176 0 0 0 0 1 0 0 0 0.45 0"/>
<feBlend mode="normal" in2="BackgroundImageFix" result="effect1_dropShadow_2_773"/>
<feBlend mode="normal" in="SourceGraphic" in2="effect1_dropShadow_2_773" result="shape"/>
</filter>
<filter id="filter2_d_2_773" x="299.869" y="282.642" width="39.9677" height="39.9674" filterUnits="userSpaceOnUse" color-interpolation-filters="sRGB">
<feFlood flood-opacity="0" result="BackgroundImageFix"/>
<feColorMatrix in="SourceAlpha" type="matrix" values="0 0 0 0 0 0 0 0 0 0 0 0 0 0 0 0 0 0 127 0" result="hardAlpha"/>
<feMorphology radius="6.96683" operator="erode" in="SourceAlpha" result="effect1_dropShadow_2_773"/>
<feOffset dy="10.4502"/>
<feGaussianBlur stdDeviation="11.6114"/>
<feColorMatrix type="matrix" values="0 0 0 0 0.243137 0 0 0 0 0.741176 0 0 0 0 1 0 0 0 0.45 0"/>
<feBlend mode="normal" in2="BackgroundImageFix" result="effect1_dropShadow_2_773"/>
<feBlend mode="normal" in="SourceGraphic" in2="effect1_dropShadow_2_773" result="shape"/>
</filter>
<filter id="filter3_d_2_773" x="158.209" y="276.677" width="47.9204" height="47.9206" filterUnits="userSpaceOnUse" color-interpolation-filters="sRGB">
<feFlood flood-opacity="0" result="BackgroundImageFix"/>
<feColorMatrix in="SourceAlpha" type="matrix" values="0 0 0 0 0 0 0 0 0 0 0 0 0 0 0 0 0 0 127 0" result="hardAlpha"/>
<feMorphology radius="6.96683" operator="erode" in="SourceAlpha" result="effect1_dropShadow_2_773"/>
<feOffset dy="10.4502"/>
<feGaussianBlur stdDeviation="11.6114"/>
<feColorMatrix type="matrix" values="0 0 0 0 0.243137 0 0 0 0 0.741176 0 0 0 0 1 0 0 0 0.45 0"/>
<feBlend mode="normal" in2="BackgroundImageFix" result="effect1_dropShadow_2_773"/>
<feBlend mode="normal" in="SourceGraphic" in2="effect1_dropShadow_2_773" result="shape"/>
</filter>
<filter id="filter4_d_2_773" x="295.395" y="253.813" width="41.4589" height="41.4586" filterUnits="userSpaceOnUse" color-interpolation-filters="sRGB">
<feFlood flood-opacity="0" result="BackgroundImageFix"/>
<feColorMatrix in="SourceAlpha" type="matrix" values="0 0 0 0 0 0 0 0 0 0 0 0 0 0 0 0 0 0 127 0" result="hardAlpha"/>
<feMorphology radius="6.96683" operator="erode" in="SourceAlpha" result="effect1_dropShadow_2_773"/>
<feOffset dy="10.4502"/>
<feGaussianBlur stdDeviation="11.6114"/>
<feColorMatrix type="matrix" values="0 0 0 0 0.243137 0 0 0 0 0.741176 0 0 0 0 1 0 0 0 0.45 0"/>
<feBlend mode="normal" in2="BackgroundImageFix" result="effect1_dropShadow_2_773"/>
<feBlend mode="normal" in="SourceGraphic" in2="effect1_dropShadow_2_773" result="shape"/>
</filter>
<filter id="filter5_d_2_773" x="55.8167" y="253.315" width="41.4588" height="41.4586" filterUnits="userSpaceOnUse" color-interpolation-filters="sRGB">
<feFlood flood-opacity="0" result="BackgroundImageFix"/>
<feColorMatrix in="SourceAlpha" type="matrix" values="0 0 0 0 0 0 0 0 0 0 0 0 0 0 0 0 0 0 127 0" result="hardAlpha"/>
<feMorphology radius="6.96683" operator="erode" in="SourceAlpha" result="effect1_dropShadow_2_773"/>
<feOffset dy="10.4502"/>
<feGaussianBlur stdDeviation="11.6114"/>
<feColorMatrix type="matrix" values="0 0 0 0 0.243137 0 0 0 0 0.741176 0 0 0 0 1 0 0 0 0.45 0"/>
<feBlend mode="normal" in2="BackgroundImageFix" result="effect1_dropShadow_2_773"/>
<feBlend mode="normal" in="SourceGraphic" in2="effect1_dropShadow_2_773" result="shape"/>
</filter>
<filter id="filter6_d_2_773" x="248.175" y="294.074" width="36.9854" height="36.9855" filterUnits="userSpaceOnUse" color-interpolation-filters="sRGB">
<feFlood flood-opacity="0" result="BackgroundImageFix"/>
<feColorMatrix in="SourceAlpha" type="matrix" values="0 0 0 0 0 0 0 0 0 0 0 0 0 0 0 0 0 0 127 0" result="hardAlpha"/>
<feMorphology radius="6.96683" operator="erode" in="SourceAlpha" result="effect1_dropShadow_2_773"/>
<feOffset dy="10.4502"/>
<feGaussianBlur stdDeviation="11.6114"/>
<feColorMatrix type="matrix" values="0 0 0 0 0.243137 0 0 0 0 0.741176 0 0 0 0 1 0 0 0 0.45 0"/>
<feBlend mode="normal" in2="BackgroundImageFix" result="effect1_dropShadow_2_773"/>
<feBlend mode="normal" in="SourceGraphic" in2="effect1_dropShadow_2_773" result="shape"/>
</filter>
<linearGradient id="paint0_linear_2_773" x1="193.85" y1="116.965" x2="201.932" y2="117.721" gradientUnits="userSpaceOnUse">
<stop stop-color="#FCC822"/>
<stop offset="1" stop-color="#FFDD72"/>
</linearGradient>
<linearGradient id="paint1_linear_2_773" x1="395.653" y1="212.896" x2="403.735" y2="213.651" gradientUnits="userSpaceOnUse">
<stop stop-color="#FCC822"/>
<stop offset="1" stop-color="#FFDD72"/>
</linearGradient>
<linearGradient id="paint2_linear_2_773" x1="316.125" y1="288.448" x2="324.207" y2="289.204" gradientUnits="userSpaceOnUse">
<stop stop-color="#FCC822"/>
<stop offset="1" stop-color="#FFDD72"/>
</linearGradient>
<linearGradient id="paint3_linear_2_773" x1="174.465" y1="282.482" x2="191.169" y2="284.045" gradientUnits="userSpaceOnUse">
<stop stop-color="#FCC822"/>
<stop offset="1" stop-color="#FFDD72"/>
</linearGradient>
<linearGradient id="paint4_linear_2_773" x1="311.651" y1="259.619" x2="321.35" y2="260.526" gradientUnits="userSpaceOnUse">
<stop stop-color="#FCC822"/>
<stop offset="1" stop-color="#FFDD72"/>
</linearGradient>
<linearGradient id="paint5_linear_2_773" x1="72.0726" y1="259.121" x2="81.7715" y2="260.028" gradientUnits="userSpaceOnUse">
<stop stop-color="#FCC822"/>
<stop offset="1" stop-color="#FFDD72"/>
</linearGradient>
<linearGradient id="paint6_linear_2_773" x1="264.431" y1="299.88" x2="269.281" y2="300.333" gradientUnits="userSpaceOnUse">
<stop stop-color="#FDC68A"/>
<stop offset="1" stop-color="#FCC822"/>
</linearGradient>
<linearGradient id="paint7_linear_2_773" x1="273.378" y1="182.576" x2="273.378" y2="188.54" gradientUnits="userSpaceOnUse">
<stop stop-color="#FCC822"/>
<stop offset="1" stop-color="#FFDD72"/>
</linearGradient>
<linearGradient id="paint8_linear_2_773" x1="288.29" y1="201.306" x2="288.29" y2="207.271" gradientUnits="userSpaceOnUse">
<stop stop-color="#FCC822"/>
<stop offset="1" stop-color="#FFDD72"/>
</linearGradient>
<linearGradient id="paint9_linear_2_773" x1="297.734" y1="202.798" x2="297.734" y2="205.78" gradientUnits="userSpaceOnUse">
<stop stop-color="#FCC822"/>
<stop offset="1" stop-color="#FFDD72"/>
</linearGradient>
<linearGradient id="paint10_linear_2_773" x1="294.968" y1="209.475" x2="294.968" y2="212.457" gradientUnits="userSpaceOnUse">
<stop stop-color="#FCC822"/>
<stop offset="1" stop-color="#FFDD72"/>
</linearGradient>
<linearGradient id="paint11_linear_2_773" x1="288.13" y1="212.241" x2="288.13" y2="215.224" gradientUnits="userSpaceOnUse">
<stop stop-color="#FCC822"/>
<stop offset="1" stop-color="#FFDD72"/>
</linearGradient>
<linearGradient id="paint12_linear_2_773" x1="281.452" y1="209.476" x2="281.452" y2="212.458" gradientUnits="userSpaceOnUse">
<stop stop-color="#FCC822"/>
<stop offset="1" stop-color="#FFDD72"/>
</linearGradient>
<linearGradient id="paint13_linear_2_773" x1="278.846" y1="202.798" x2="278.846" y2="205.78" gradientUnits="userSpaceOnUse">
<stop stop-color="#FCC822"/>
<stop offset="1" stop-color="#FFDD72"/>
</linearGradient>
<linearGradient id="paint14_linear_2_773" x1="281.612" y1="196.12" x2="281.612" y2="199.102" gradientUnits="userSpaceOnUse">
<stop stop-color="#FCC822"/>
<stop offset="1" stop-color="#FFDD72"/>
</linearGradient>
<linearGradient id="paint15_linear_2_773" x1="288.13" y1="193.354" x2="288.13" y2="196.336" gradientUnits="userSpaceOnUse">
<stop stop-color="#FCC822"/>
<stop offset="1" stop-color="#FFDD72"/>
</linearGradient>
<linearGradient id="paint16_linear_2_773" x1="294.807" y1="196.119" x2="294.807" y2="199.102" gradientUnits="userSpaceOnUse">
<stop stop-color="#FCC822"/>
<stop offset="1" stop-color="#FFDD72"/>
</linearGradient>
</defs>
</svg>
